ISO-10303-21;
HEADER;
/* Generated by software containing ST-Developer
 * from STEP Tools, Inc. (www.steptools.com) 
 */

FILE_DESCRIPTION(
/* description */ (''),
/* implementation_level */ '2;1');

FILE_NAME(
/* name */ 'mini-rack-backplate.step',
/* time_stamp */ '2026-09-11T12:26:53+03:00',
/* author */ (''),
/* organization */ (''),
/* preprocessor_version */ 'ST-DEVELOPER v20.2',
/* originating_system */ 'Autodesk Translation Framework v15.15.0.0',
/* authorisation */ '');

FILE_SCHEMA (('AUTOMOTIVE_DESIGN { 1 0 10303 214 3 1 1 }'));
ENDSEC;

DATA;
#10=MECHANICAL_DESIGN_GEOMETRIC_PRESENTATION_REPRESENTATION('',(#13),#1859);
#11=SHAPE_REPRESENTATION_RELATIONSHIP('SRR','None',#1866,#12);
#12=ADVANCED_BREP_SHAPE_REPRESENTATION('',(#14),#1858);
#13=STYLED_ITEM('',(#1875),#14);
#14=MANIFOLD_SOLID_BREP('backplate',#1135);
#15=CYLINDRICAL_SURFACE('',#1158,3.24999999999999);
#16=CYLINDRICAL_SURFACE('',#1161,3.24999999999999);
#17=CYLINDRICAL_SURFACE('',#1165,3.25000000000001);
#18=CYLINDRICAL_SURFACE('',#1169,3.24999999999999);
#19=CYLINDRICAL_SURFACE('',#1174,5.);
#20=CYLINDRICAL_SURFACE('',#1178,5.);
#21=CYLINDRICAL_SURFACE('',#1186,5.);
#22=CYLINDRICAL_SURFACE('',#1190,5.);
#23=CYLINDRICAL_SURFACE('',#1193,3.24999999999999);
#24=CYLINDRICAL_SURFACE('',#1198,3.25000000000001);
#25=CYLINDRICAL_SURFACE('',#1202,3.24999999999999);
#26=CYLINDRICAL_SURFACE('',#1206,3.25000000000001);
#27=CYLINDRICAL_SURFACE('',#1218,1.5);
#28=CYLINDRICAL_SURFACE('',#1228,1.5);
#29=CIRCLE('',#1154,1.5);
#30=CIRCLE('',#1155,1.5);
#31=CIRCLE('',#1159,3.24999999999999);
#32=CIRCLE('',#1160,3.24999999999999);
#33=CIRCLE('',#1162,3.24999999999999);
#34=CIRCLE('',#1163,3.24999999999999);
#35=CIRCLE('',#1166,3.25000000000001);
#36=CIRCLE('',#1167,3.25000000000001);
#37=CIRCLE('',#1170,3.24999999999999);
#38=CIRCLE('',#1171,3.24999999999999);
#39=CIRCLE('',#1175,5.);
#40=CIRCLE('',#1176,5.);
#41=CIRCLE('',#1179,5.);
#42=CIRCLE('',#1180,5.);
#43=CIRCLE('',#1187,5.);
#44=CIRCLE('',#1188,5.);
#45=CIRCLE('',#1191,5.);
#46=CIRCLE('',#1192,5.);
#47=CIRCLE('',#1194,3.24999999999999);
#48=CIRCLE('',#1195,3.24999999999999);
#49=CIRCLE('',#1199,3.25000000000001);
#50=CIRCLE('',#1200,3.25000000000001);
#51=CIRCLE('',#1203,3.24999999999999);
#52=CIRCLE('',#1204,3.24999999999999);
#53=CIRCLE('',#1207,3.25000000000001);
#54=CIRCLE('',#1208,3.25000000000001);
#55=CIRCLE('',#1212,1.5);
#56=CIRCLE('',#1213,1.5);
#57=FACE_BOUND('',#128,.T.);
#58=FACE_BOUND('',#164,.T.);
#59=FACE_BOUND('',#165,.T.);
#60=FACE_BOUND('',#166,.T.);
#61=FACE_BOUND('',#167,.T.);
#62=FACE_BOUND('',#168,.T.);
#63=FACE_BOUND('',#169,.T.);
#64=FACE_BOUND('',#172,.T.);
#65=FACE_BOUND('',#173,.T.);
#66=FACE_BOUND('',#174,.T.);
#67=FACE_BOUND('',#175,.T.);
#68=FACE_BOUND('',#176,.T.);
#69=FACE_BOUND('',#177,.T.);
#70=FACE_OUTER_BOUND('',#127,.T.);
#71=FACE_OUTER_BOUND('',#129,.T.);
#72=FACE_OUTER_BOUND('',#130,.T.);
#73=FACE_OUTER_BOUND('',#131,.T.);
#74=FACE_OUTER_BOUND('',#132,.T.);
#75=FACE_OUTER_BOUND('',#133,.T.);
#76=FACE_OUTER_BOUND('',#134,.T.);
#77=FACE_OUTER_BOUND('',#135,.T.);
#78=FACE_OUTER_BOUND('',#136,.T.);
#79=FACE_OUTER_BOUND('',#137,.T.);
#80=FACE_OUTER_BOUND('',#138,.T.);
#81=FACE_OUTER_BOUND('',#139,.T.);
#82=FACE_OUTER_BOUND('',#140,.T.);
#83=FACE_OUTER_BOUND('',#141,.T.);
#84=FACE_OUTER_BOUND('',#142,.T.);
#85=FACE_OUTER_BOUND('',#143,.T.);
#86=FACE_OUTER_BOUND('',#144,.T.);
#87=FACE_OUTER_BOUND('',#145,.T.);
#88=FACE_OUTER_BOUND('',#146,.T.);
#89=FACE_OUTER_BOUND('',#147,.T.);
#90=FACE_OUTER_BOUND('',#148,.T.);
#91=FACE_OUTER_BOUND('',#149,.T.);
#92=FACE_OUTER_BOUND('',#150,.T.);
#93=FACE_OUTER_BOUND('',#151,.T.);
#94=FACE_OUTER_BOUND('',#152,.T.);
#95=FACE_OUTER_BOUND('',#153,.T.);
#96=FACE_OUTER_BOUND('',#154,.T.);
#97=FACE_OUTER_BOUND('',#155,.T.);
#98=FACE_OUTER_BOUND('',#156,.T.);
#99=FACE_OUTER_BOUND('',#157,.T.);
#100=FACE_OUTER_BOUND('',#158,.T.);
#101=FACE_OUTER_BOUND('',#159,.T.);
#102=FACE_OUTER_BOUND('',#160,.T.);
#103=FACE_OUTER_BOUND('',#161,.T.);
#104=FACE_OUTER_BOUND('',#162,.T.);
#105=FACE_OUTER_BOUND('',#163,.T.);
#106=FACE_OUTER_BOUND('',#170,.T.);
#107=FACE_OUTER_BOUND('',#171,.T.);
#108=FACE_OUTER_BOUND('',#178,.T.);
#109=FACE_OUTER_BOUND('',#179,.T.);
#110=FACE_OUTER_BOUND('',#180,.T.);
#111=FACE_OUTER_BOUND('',#181,.T.);
#112=FACE_OUTER_BOUND('',#182,.T.);
#113=FACE_OUTER_BOUND('',#183,.T.);
#114=FACE_OUTER_BOUND('',#184,.T.);
#115=FACE_OUTER_BOUND('',#185,.T.);
#116=FACE_OUTER_BOUND('',#186,.T.);
#117=FACE_OUTER_BOUND('',#187,.T.);
#118=FACE_OUTER_BOUND('',#188,.T.);
#119=FACE_OUTER_BOUND('',#189,.T.);
#120=FACE_OUTER_BOUND('',#190,.T.);
#121=FACE_OUTER_BOUND('',#191,.T.);
#122=FACE_OUTER_BOUND('',#192,.T.);
#123=FACE_OUTER_BOUND('',#193,.T.);
#124=FACE_OUTER_BOUND('',#194,.T.);
#125=FACE_OUTER_BOUND('',#195,.T.);
#126=FACE_OUTER_BOUND('',#196,.T.);
#127=EDGE_LOOP('',(#719,#720,#721,#722));
#128=EDGE_LOOP('',(#723,#724,#725,#726));
#129=EDGE_LOOP('',(#727,#728,#729,#730));
#130=EDGE_LOOP('',(#731,#732,#733,#734));
#131=EDGE_LOOP('',(#735,#736,#737,#738));
#132=EDGE_LOOP('',(#739,#740,#741,#742,#743,#744,#745,#746));
#133=EDGE_LOOP('',(#747,#748,#749,#750));
#134=EDGE_LOOP('',(#751,#752,#753,#754));
#135=EDGE_LOOP('',(#755,#756,#757,#758));
#136=EDGE_LOOP('',(#759,#760,#761,#762));
#137=EDGE_LOOP('',(#763,#764,#765,#766));
#138=EDGE_LOOP('',(#767,#768,#769,#770));
#139=EDGE_LOOP('',(#771,#772,#773,#774));
#140=EDGE_LOOP('',(#775,#776,#777,#778));
#141=EDGE_LOOP('',(#779,#780,#781,#782));
#142=EDGE_LOOP('',(#783,#784,#785,#786));
#143=EDGE_LOOP('',(#787,#788,#789,#790));
#144=EDGE_LOOP('',(#791,#792,#793,#794));
#145=EDGE_LOOP('',(#795,#796,#797,#798));
#146=EDGE_LOOP('',(#799,#800,#801,#802));
#147=EDGE_LOOP('',(#803,#804,#805,#806));
#148=EDGE_LOOP('',(#807,#808,#809,#810));
#149=EDGE_LOOP('',(#811,#812,#813,#814));
#150=EDGE_LOOP('',(#815,#816,#817,#818));
#151=EDGE_LOOP('',(#819,#820,#821,#822));
#152=EDGE_LOOP('',(#823,#824,#825,#826));
#153=EDGE_LOOP('',(#827,#828,#829,#830));
#154=EDGE_LOOP('',(#831,#832,#833,#834));
#155=EDGE_LOOP('',(#835,#836,#837,#838));
#156=EDGE_LOOP('',(#839,#840,#841,#842));
#157=EDGE_LOOP('',(#843,#844,#845,#846));
#158=EDGE_LOOP('',(#847,#848,#849,#850));
#159=EDGE_LOOP('',(#851,#852,#853,#854));
#160=EDGE_LOOP('',(#855,#856,#857,#858));
#161=EDGE_LOOP('',(#859,#860,#861,#862));
#162=EDGE_LOOP('',(#863,#864,#865,#866));
#163=EDGE_LOOP('',(#867,#868,#869,#870,#871,#872,#873,#874));
#164=EDGE_LOOP('',(#875,#876,#877,#878));
#165=EDGE_LOOP('',(#879,#880,#881,#882));
#166=EDGE_LOOP('',(#883,#884,#885,#886));
#167=EDGE_LOOP('',(#887,#888,#889,#890));
#168=EDGE_LOOP('',(#891,#892,#893,#894));
#169=EDGE_LOOP('',(#895,#896,#897,#898));
#170=EDGE_LOOP('',(#899,#900,#901,#902,#903,#904,#905,#906));
#171=EDGE_LOOP('',(#907,#908,#909,#910,#911,#912,#913,#914));
#172=EDGE_LOOP('',(#915,#916,#917,#918));
#173=EDGE_LOOP('',(#919,#920,#921,#922));
#174=EDGE_LOOP('',(#923,#924,#925,#926));
#175=EDGE_LOOP('',(#927,#928,#929,#930));
#176=EDGE_LOOP('',(#931,#932,#933,#934));
#177=EDGE_LOOP('',(#935,#936,#937,#938));
#178=EDGE_LOOP('',(#939,#940,#941,#942));
#179=EDGE_LOOP('',(#943,#944,#945,#946));
#180=EDGE_LOOP('',(#947,#948,#949,#950));
#181=EDGE_LOOP('',(#951,#952,#953,#954,#955,#956));
#182=EDGE_LOOP('',(#957,#958,#959,#960));
#183=EDGE_LOOP('',(#961,#962,#963,#964));
#184=EDGE_LOOP('',(#965,#966,#967,#968));
#185=EDGE_LOOP('',(#969,#970,#971,#972));
#186=EDGE_LOOP('',(#973,#974,#975,#976));
#187=EDGE_LOOP('',(#977,#978,#979,#980));
#188=EDGE_LOOP('',(#981,#982,#983,#984));
#189=EDGE_LOOP('',(#985,#986,#987,#988));
#190=EDGE_LOOP('',(#989,#990,#991,#992));
#191=EDGE_LOOP('',(#993,#994,#995,#996,#997,#998));
#192=EDGE_LOOP('',(#999,#1000,#1001,#1002));
#193=EDGE_LOOP('',(#1003,#1004,#1005,#1006,#1007,#1008,#1009,#1010,#1011,
#1012,#1013,#1014));
#194=EDGE_LOOP('',(#1015,#1016,#1017,#1018));
#195=EDGE_LOOP('',(#1019,#1020,#1021,#1022,#1023,#1024,#1025,#1026,#1027,
#1028,#1029,#1030));
#196=EDGE_LOOP('',(#1031,#1032,#1033,#1034));
#197=LINE('',#1540,#327);
#198=LINE('',#1542,#328);
#199=LINE('',#1544,#329);
#200=LINE('',#1545,#330);
#201=LINE('',#1548,#331);
#202=LINE('',#1550,#332);
#203=LINE('',#1552,#333);
#204=LINE('',#1553,#334);
#205=LINE('',#1556,#335);
#206=LINE('',#1558,#336);
#207=LINE('',#1559,#337);
#208=LINE('',#1562,#338);
#209=LINE('',#1563,#339);
#210=LINE('',#1567,#340);
#211=LINE('',#1569,#341);
#212=LINE('',#1571,#342);
#213=LINE('',#1572,#343);
#214=LINE('',#1575,#344);
#215=LINE('',#1577,#345);
#216=LINE('',#1579,#346);
#217=LINE('',#1583,#347);
#218=LINE('',#1586,#348);
#219=LINE('',#1589,#349);
#220=LINE('',#1590,#350);
#221=LINE('',#1594,#351);
#222=LINE('',#1596,#352);
#223=LINE('',#1598,#353);
#224=LINE('',#1599,#354);
#225=LINE('',#1604,#355);
#226=LINE('',#1611,#356);
#227=LINE('',#1614,#357);
#228=LINE('',#1617,#358);
#229=LINE('',#1619,#359);
#230=LINE('',#1620,#360);
#231=LINE('',#1626,#361);
#232=LINE('',#1629,#362);
#233=LINE('',#1632,#363);
#234=LINE('',#1634,#364);
#235=LINE('',#1635,#365);
#236=LINE('',#1641,#366);
#237=LINE('',#1644,#367);
#238=LINE('',#1647,#368);
#239=LINE('',#1649,#369);
#240=LINE('',#1650,#370);
#241=LINE('',#1654,#371);
#242=LINE('',#1656,#372);
#243=LINE('',#1658,#373);
#244=LINE('',#1659,#374);
#245=LINE('',#1664,#375);
#246=LINE('',#1668,#376);
#247=LINE('',#1670,#377);
#248=LINE('',#1671,#378);
#249=LINE('',#1676,#379);
#250=LINE('',#1681,#380);
#251=LINE('',#1682,#381);
#252=LINE('',#1683,#382);
#253=LINE('',#1686,#383);
#254=LINE('',#1687,#384);
#255=LINE('',#1690,#385);
#256=LINE('',#1691,#386);
#257=LINE('',#1693,#387);
#258=LINE('',#1695,#388);
#259=LINE('',#1701,#389);
#260=LINE('',#1704,#390);
#261=LINE('',#1706,#391);
#262=LINE('',#1707,#392);
#263=LINE('',#1713,#393);
#264=LINE('',#1719,#394);
#265=LINE('',#1721,#395);
#266=LINE('',#1722,#396);
#267=LINE('',#1725,#397);
#268=LINE('',#1727,#398);
#269=LINE('',#1728,#399);
#270=LINE('',#1734,#400);
#271=LINE('',#1736,#401);
#272=LINE('',#1737,#402);
#273=LINE('',#1743,#403);
#274=LINE('',#1745,#404);
#275=LINE('',#1746,#405);
#276=LINE('',#1751,#406);
#277=LINE('',#1752,#407);
#278=LINE('',#1755,#408);
#279=LINE('',#1756,#409);
#280=LINE('',#1759,#410);
#281=LINE('',#1763,#411);
#282=LINE('',#1767,#412);
#283=LINE('',#1768,#413);
#284=LINE('',#1772,#414);
#285=LINE('',#1774,#415);
#286=LINE('',#1776,#416);
#287=LINE('',#1777,#417);
#288=LINE('',#1779,#418);
#289=LINE('',#1781,#419);
#290=LINE('',#1783,#420);
#291=LINE('',#1786,#421);
#292=LINE('',#1788,#422);
#293=LINE('',#1789,#423);
#294=LINE('',#1793,#424);
#295=LINE('',#1795,#425);
#296=LINE('',#1797,#426);
#297=LINE('',#1798,#427);
#298=LINE('',#1802,#428);
#299=LINE('',#1804,#429);
#300=LINE('',#1806,#430);
#301=LINE('',#1807,#431);
#302=LINE('',#1809,#432);
#303=LINE('',#1810,#433);
#304=LINE('',#1812,#434);
#305=LINE('',#1813,#435);
#306=LINE('',#1816,#436);
#307=LINE('',#1818,#437);
#308=LINE('',#1819,#438);
#309=LINE('',#1822,#439);
#310=LINE('',#1824,#440);
#311=LINE('',#1825,#441);
#312=LINE('',#1828,#442);
#313=LINE('',#1829,#443);
#314=LINE('',#1833,#444);
#315=LINE('',#1834,#445);
#316=LINE('',#1836,#446);
#317=LINE('',#1837,#447);
#318=LINE('',#1840,#448);
#319=LINE('',#1842,#449);
#320=LINE('',#1843,#450);
#321=LINE('',#1845,#451);
#322=LINE('',#1847,#452);
#323=LINE('',#1849,#453);
#324=LINE('',#1850,#454);
#325=LINE('',#1852,#455);
#326=LINE('',#1854,#456);
#327=VECTOR('',#1238,10.);
#328=VECTOR('',#1239,10.);
#329=VECTOR('',#1240,10.);
#330=VECTOR('',#1241,10.);
#331=VECTOR('',#1242,10.);
#332=VECTOR('',#1243,10.);
#333=VECTOR('',#1244,10.);
#334=VECTOR('',#1245,10.);
#335=VECTOR('',#1248,10.);
#336=VECTOR('',#1249,10.);
#337=VECTOR('',#1250,10.);
#338=VECTOR('',#1253,10.);
#339=VECTOR('',#1254,10.);
#340=VECTOR('',#1257,10.);
#341=VECTOR('',#1258,10.);
#342=VECTOR('',#1259,10.);
#343=VECTOR('',#1260,10.);
#344=VECTOR('',#1263,10.);
#345=VECTOR('',#1264,10.);
#346=VECTOR('',#1265,10.);
#347=VECTOR('',#1268,10.);
#348=VECTOR('',#1271,10.);
#349=VECTOR('',#1274,10.);
#350=VECTOR('',#1275,10.);
#351=VECTOR('',#1278,10.);
#352=VECTOR('',#1279,10.);
#353=VECTOR('',#1280,10.);
#354=VECTOR('',#1281,10.);
#355=VECTOR('',#1286,10.);
#356=VECTOR('',#1293,10.);
#357=VECTOR('',#1296,10.);
#358=VECTOR('',#1299,10.);
#359=VECTOR('',#1300,10.);
#360=VECTOR('',#1301,10.);
#361=VECTOR('',#1306,10.);
#362=VECTOR('',#1309,10.);
#363=VECTOR('',#1312,10.);
#364=VECTOR('',#1313,10.);
#365=VECTOR('',#1314,10.);
#366=VECTOR('',#1319,10.);
#367=VECTOR('',#1322,10.);
#368=VECTOR('',#1325,10.);
#369=VECTOR('',#1326,10.);
#370=VECTOR('',#1327,10.);
#371=VECTOR('',#1330,10.);
#372=VECTOR('',#1331,10.);
#373=VECTOR('',#1332,10.);
#374=VECTOR('',#1333,10.);
#375=VECTOR('',#1338,10.);
#376=VECTOR('',#1343,10.);
#377=VECTOR('',#1344,10.);
#378=VECTOR('',#1345,10.);
#379=VECTOR('',#1350,10.);
#380=VECTOR('',#1355,10.);
#381=VECTOR('',#1356,10.);
#382=VECTOR('',#1357,10.);
#383=VECTOR('',#1360,10.);
#384=VECTOR('',#1361,10.);
#385=VECTOR('',#1364,10.);
#386=VECTOR('',#1365,10.);
#387=VECTOR('',#1368,10.);
#388=VECTOR('',#1371,10.);
#389=VECTOR('',#1378,10.);
#390=VECTOR('',#1381,10.);
#391=VECTOR('',#1382,10.);
#392=VECTOR('',#1383,10.);
#393=VECTOR('',#1390,10.);
#394=VECTOR('',#1397,10.);
#395=VECTOR('',#1400,10.);
#396=VECTOR('',#1401,10.);
#397=VECTOR('',#1404,10.);
#398=VECTOR('',#1405,10.);
#399=VECTOR('',#1406,10.);
#400=VECTOR('',#1415,10.);
#401=VECTOR('',#1416,10.);
#402=VECTOR('',#1417,10.);
#403=VECTOR('',#1426,10.);
#404=VECTOR('',#1427,10.);
#405=VECTOR('',#1428,10.);
#406=VECTOR('',#1437,10.);
#407=VECTOR('',#1438,10.);
#408=VECTOR('',#1441,10.);
#409=VECTOR('',#1442,10.);
#410=VECTOR('',#1445,10.);
#411=VECTOR('',#1448,10.);
#412=VECTOR('',#1451,10.);
#413=VECTOR('',#1452,10.);
#414=VECTOR('',#1455,10.);
#415=VECTOR('',#1456,10.);
#416=VECTOR('',#1457,10.);
#417=VECTOR('',#1458,10.);
#418=VECTOR('',#1461,10.);
#419=VECTOR('',#1464,10.);
#420=VECTOR('',#1467,10.);
#421=VECTOR('',#1470,10.);
#422=VECTOR('',#1471,10.);
#423=VECTOR('',#1472,10.);
#424=VECTOR('',#1475,10.);
#425=VECTOR('',#1476,10.);
#426=VECTOR('',#1477,10.);
#427=VECTOR('',#1478,10.);
#428=VECTOR('',#1481,10.);
#429=VECTOR('',#1482,10.);
#430=VECTOR('',#1483,10.);
#431=VECTOR('',#1484,10.);
#432=VECTOR('',#1487,10.);
#433=VECTOR('',#1488,10.);
#434=VECTOR('',#1491,10.);
#435=VECTOR('',#1492,10.);
#436=VECTOR('',#1495,10.);
#437=VECTOR('',#1496,10.);
#438=VECTOR('',#1497,10.);
#439=VECTOR('',#1500,10.);
#440=VECTOR('',#1501,10.);
#441=VECTOR('',#1502,10.);
#442=VECTOR('',#1505,10.);
#443=VECTOR('',#1506,10.);
#444=VECTOR('',#1509,10.);
#445=VECTOR('',#1510,10.);
#446=VECTOR('',#1511,10.);
#447=VECTOR('',#1512,10.);
#448=VECTOR('',#1515,10.);
#449=VECTOR('',#1516,10.);
#450=VECTOR('',#1517,10.);
#451=VECTOR('',#1520,10.);
#452=VECTOR('',#1523,10.);
#453=VECTOR('',#1526,10.);
#454=VECTOR('',#1527,10.);
#455=VECTOR('',#1530,10.);
#456=VECTOR('',#1533,10.);
#457=VERTEX_POINT('',#1538);
#458=VERTEX_POINT('',#1539);
#459=VERTEX_POINT('',#1541);
#460=VERTEX_POINT('',#1543);
#461=VERTEX_POINT('',#1546);
#462=VERTEX_POINT('',#1547);
#463=VERTEX_POINT('',#1549);
#464=VERTEX_POINT('',#1551);
#465=VERTEX_POINT('',#1555);
#466=VERTEX_POINT('',#1557);
#467=VERTEX_POINT('',#1561);
#468=VERTEX_POINT('',#1565);
#469=VERTEX_POINT('',#1566);
#470=VERTEX_POINT('',#1568);
#471=VERTEX_POINT('',#1570);
#472=VERTEX_POINT('',#1574);
#473=VERTEX_POINT('',#1576);
#474=VERTEX_POINT('',#1578);
#475=VERTEX_POINT('',#1580);
#476=VERTEX_POINT('',#1582);
#477=VERTEX_POINT('',#1584);
#478=VERTEX_POINT('',#1588);
#479=VERTEX_POINT('',#1592);
#480=VERTEX_POINT('',#1593);
#481=VERTEX_POINT('',#1595);
#482=VERTEX_POINT('',#1597);
#483=VERTEX_POINT('',#1601);
#484=VERTEX_POINT('',#1603);
#485=VERTEX_POINT('',#1607);
#486=VERTEX_POINT('',#1608);
#487=VERTEX_POINT('',#1610);
#488=VERTEX_POINT('',#1612);
#489=VERTEX_POINT('',#1616);
#490=VERTEX_POINT('',#1618);
#491=VERTEX_POINT('',#1622);
#492=VERTEX_POINT('',#1623);
#493=VERTEX_POINT('',#1625);
#494=VERTEX_POINT('',#1627);
#495=VERTEX_POINT('',#1631);
#496=VERTEX_POINT('',#1633);
#497=VERTEX_POINT('',#1637);
#498=VERTEX_POINT('',#1638);
#499=VERTEX_POINT('',#1640);
#500=VERTEX_POINT('',#1642);
#501=VERTEX_POINT('',#1646);
#502=VERTEX_POINT('',#1648);
#503=VERTEX_POINT('',#1652);
#504=VERTEX_POINT('',#1653);
#505=VERTEX_POINT('',#1655);
#506=VERTEX_POINT('',#1657);
#507=VERTEX_POINT('',#1661);
#508=VERTEX_POINT('',#1663);
#509=VERTEX_POINT('',#1667);
#510=VERTEX_POINT('',#1669);
#511=VERTEX_POINT('',#1673);
#512=VERTEX_POINT('',#1675);
#513=VERTEX_POINT('',#1679);
#514=VERTEX_POINT('',#1680);
#515=VERTEX_POINT('',#1685);
#516=VERTEX_POINT('',#1689);
#517=VERTEX_POINT('',#1697);
#518=VERTEX_POINT('',#1699);
#519=VERTEX_POINT('',#1703);
#520=VERTEX_POINT('',#1705);
#521=VERTEX_POINT('',#1709);
#522=VERTEX_POINT('',#1711);
#523=VERTEX_POINT('',#1715);
#524=VERTEX_POINT('',#1717);
#525=VERTEX_POINT('',#1724);
#526=VERTEX_POINT('',#1726);
#527=VERTEX_POINT('',#1733);
#528=VERTEX_POINT('',#1735);
#529=VERTEX_POINT('',#1742);
#530=VERTEX_POINT('',#1744);
#531=VERTEX_POINT('',#1754);
#532=VERTEX_POINT('',#1758);
#533=VERTEX_POINT('',#1760);
#534=VERTEX_POINT('',#1762);
#535=VERTEX_POINT('',#1764);
#536=VERTEX_POINT('',#1766);
#537=VERTEX_POINT('',#1770);
#538=VERTEX_POINT('',#1771);
#539=VERTEX_POINT('',#1773);
#540=VERTEX_POINT('',#1775);
#541=VERTEX_POINT('',#1785);
#542=VERTEX_POINT('',#1787);
#543=VERTEX_POINT('',#1791);
#544=VERTEX_POINT('',#1792);
#545=VERTEX_POINT('',#1794);
#546=VERTEX_POINT('',#1796);
#547=VERTEX_POINT('',#1800);
#548=VERTEX_POINT('',#1801);
#549=VERTEX_POINT('',#1803);
#550=VERTEX_POINT('',#1805);
#551=VERTEX_POINT('',#1815);
#552=VERTEX_POINT('',#1817);
#553=VERTEX_POINT('',#1821);
#554=VERTEX_POINT('',#1823);
#555=VERTEX_POINT('',#1827);
#556=VERTEX_POINT('',#1831);
#557=VERTEX_POINT('',#1832);
#558=VERTEX_POINT('',#1835);
#559=VERTEX_POINT('',#1839);
#560=VERTEX_POINT('',#1841);
#561=EDGE_CURVE('',#457,#458,#197,.T.);
#562=EDGE_CURVE('',#459,#457,#198,.T.);
#563=EDGE_CURVE('',#460,#459,#199,.T.);
#564=EDGE_CURVE('',#458,#460,#200,.T.);
#565=EDGE_CURVE('',#461,#462,#201,.T.);
#566=EDGE_CURVE('',#463,#461,#202,.T.);
#567=EDGE_CURVE('',#464,#463,#203,.T.);
#568=EDGE_CURVE('',#462,#464,#204,.T.);
#569=EDGE_CURVE('',#465,#464,#205,.T.);
#570=EDGE_CURVE('',#465,#466,#206,.T.);
#571=EDGE_CURVE('',#466,#462,#207,.T.);
#572=EDGE_CURVE('',#463,#467,#208,.T.);
#573=EDGE_CURVE('',#467,#465,#209,.T.);
#574=EDGE_CURVE('',#468,#469,#210,.T.);
#575=EDGE_CURVE('',#470,#469,#211,.T.);
#576=EDGE_CURVE('',#471,#470,#212,.T.);
#577=EDGE_CURVE('',#471,#468,#213,.T.);
#578=EDGE_CURVE('',#469,#472,#214,.T.);
#579=EDGE_CURVE('',#473,#472,#215,.T.);
#580=EDGE_CURVE('',#473,#474,#216,.T.);
#581=EDGE_CURVE('',#474,#475,#29,.T.);
#582=EDGE_CURVE('',#475,#476,#217,.T.);
#583=EDGE_CURVE('',#476,#477,#30,.T.);
#584=EDGE_CURVE('',#477,#470,#218,.T.);
#585=EDGE_CURVE('',#478,#461,#219,.T.);
#586=EDGE_CURVE('',#478,#467,#220,.T.);
#587=EDGE_CURVE('',#479,#480,#221,.T.);
#588=EDGE_CURVE('',#481,#480,#222,.T.);
#589=EDGE_CURVE('',#482,#481,#223,.T.);
#590=EDGE_CURVE('',#482,#479,#224,.T.);
#591=EDGE_CURVE('',#480,#483,#31,.T.);
#592=EDGE_CURVE('',#484,#483,#225,.T.);
#593=EDGE_CURVE('',#481,#484,#32,.T.);
#594=EDGE_CURVE('',#485,#486,#33,.T.);
#595=EDGE_CURVE('',#487,#486,#226,.T.);
#596=EDGE_CURVE('',#488,#487,#34,.T.);
#597=EDGE_CURVE('',#488,#485,#227,.T.);
#598=EDGE_CURVE('',#486,#489,#228,.T.);
#599=EDGE_CURVE('',#490,#489,#229,.T.);
#600=EDGE_CURVE('',#487,#490,#230,.T.);
#601=EDGE_CURVE('',#491,#492,#35,.T.);
#602=EDGE_CURVE('',#493,#492,#231,.T.);
#603=EDGE_CURVE('',#494,#493,#36,.T.);
#604=EDGE_CURVE('',#494,#491,#232,.T.);
#605=EDGE_CURVE('',#492,#495,#233,.T.);
#606=EDGE_CURVE('',#496,#495,#234,.T.);
#607=EDGE_CURVE('',#493,#496,#235,.T.);
#608=EDGE_CURVE('',#497,#498,#37,.T.);
#609=EDGE_CURVE('',#499,#498,#236,.T.);
#610=EDGE_CURVE('',#500,#499,#38,.T.);
#611=EDGE_CURVE('',#500,#497,#237,.T.);
#612=EDGE_CURVE('',#498,#501,#238,.T.);
#613=EDGE_CURVE('',#502,#501,#239,.T.);
#614=EDGE_CURVE('',#499,#502,#240,.T.);
#615=EDGE_CURVE('',#503,#504,#241,.T.);
#616=EDGE_CURVE('',#505,#504,#242,.T.);
#617=EDGE_CURVE('',#506,#505,#243,.T.);
#618=EDGE_CURVE('',#503,#506,#244,.T.);
#619=EDGE_CURVE('',#504,#507,#39,.T.);
#620=EDGE_CURVE('',#507,#508,#245,.T.);
#621=EDGE_CURVE('',#508,#505,#40,.T.);
#622=EDGE_CURVE('',#507,#509,#246,.T.);
#623=EDGE_CURVE('',#510,#509,#247,.T.);
#624=EDGE_CURVE('',#510,#508,#248,.T.);
#625=EDGE_CURVE('',#509,#511,#41,.T.);
#626=EDGE_CURVE('',#511,#512,#249,.T.);
#627=EDGE_CURVE('',#512,#510,#42,.T.);
#628=EDGE_CURVE('',#513,#514,#250,.T.);
#629=EDGE_CURVE('',#513,#459,#251,.T.);
#630=EDGE_CURVE('',#514,#457,#252,.T.);
#631=EDGE_CURVE('',#515,#513,#253,.T.);
#632=EDGE_CURVE('',#515,#460,#254,.T.);
#633=EDGE_CURVE('',#516,#515,#255,.T.);
#634=EDGE_CURVE('',#516,#458,#256,.T.);
#635=EDGE_CURVE('',#514,#516,#257,.T.);
#636=EDGE_CURVE('',#466,#478,#258,.T.);
#637=EDGE_CURVE('',#517,#503,#43,.T.);
#638=EDGE_CURVE('',#506,#518,#44,.T.);
#639=EDGE_CURVE('',#518,#517,#259,.T.);
#640=EDGE_CURVE('',#519,#517,#260,.T.);
#641=EDGE_CURVE('',#518,#520,#261,.T.);
#642=EDGE_CURVE('',#519,#520,#262,.T.);
#643=EDGE_CURVE('',#521,#519,#45,.T.);
#644=EDGE_CURVE('',#520,#522,#46,.T.);
#645=EDGE_CURVE('',#522,#521,#263,.T.);
#646=EDGE_CURVE('',#523,#479,#47,.T.);
#647=EDGE_CURVE('',#524,#482,#48,.T.);
#648=EDGE_CURVE('',#524,#523,#264,.T.);
#649=EDGE_CURVE('',#483,#523,#265,.T.);
#650=EDGE_CURVE('',#484,#524,#266,.T.);
#651=EDGE_CURVE('',#525,#485,#267,.T.);
#652=EDGE_CURVE('',#526,#488,#268,.T.);
#653=EDGE_CURVE('',#526,#525,#269,.T.);
#654=EDGE_CURVE('',#489,#525,#49,.T.);
#655=EDGE_CURVE('',#490,#526,#50,.T.);
#656=EDGE_CURVE('',#527,#491,#270,.T.);
#657=EDGE_CURVE('',#528,#494,#271,.T.);
#658=EDGE_CURVE('',#528,#527,#272,.T.);
#659=EDGE_CURVE('',#495,#527,#51,.T.);
#660=EDGE_CURVE('',#496,#528,#52,.T.);
#661=EDGE_CURVE('',#529,#497,#273,.T.);
#662=EDGE_CURVE('',#530,#500,#274,.T.);
#663=EDGE_CURVE('',#530,#529,#275,.T.);
#664=EDGE_CURVE('',#501,#529,#53,.T.);
#665=EDGE_CURVE('',#502,#530,#54,.T.);
#666=EDGE_CURVE('',#511,#521,#276,.T.);
#667=EDGE_CURVE('',#512,#522,#277,.T.);
#668=EDGE_CURVE('',#531,#468,#278,.T.);
#669=EDGE_CURVE('',#472,#531,#279,.T.);
#670=EDGE_CURVE('',#532,#471,#280,.T.);
#671=EDGE_CURVE('',#533,#532,#55,.T.);
#672=EDGE_CURVE('',#534,#533,#281,.T.);
#673=EDGE_CURVE('',#535,#534,#56,.T.);
#674=EDGE_CURVE('',#536,#535,#282,.T.);
#675=EDGE_CURVE('',#531,#536,#283,.T.);
#676=EDGE_CURVE('',#537,#538,#284,.T.);
#677=EDGE_CURVE('',#537,#539,#285,.T.);
#678=EDGE_CURVE('',#539,#540,#286,.T.);
#679=EDGE_CURVE('',#540,#538,#287,.T.);
#680=EDGE_CURVE('',#532,#477,#288,.T.);
#681=EDGE_CURVE('',#536,#473,#289,.T.);
#682=EDGE_CURVE('',#535,#474,#290,.T.);
#683=EDGE_CURVE('',#541,#534,#291,.T.);
#684=EDGE_CURVE('',#541,#542,#292,.T.);
#685=EDGE_CURVE('',#475,#542,#293,.T.);
#686=EDGE_CURVE('',#543,#544,#294,.T.);
#687=EDGE_CURVE('',#545,#543,#295,.T.);
#688=EDGE_CURVE('',#546,#545,#296,.T.);
#689=EDGE_CURVE('',#546,#544,#297,.T.);
#690=EDGE_CURVE('',#547,#548,#298,.T.);
#691=EDGE_CURVE('',#547,#549,#299,.T.);
#692=EDGE_CURVE('',#550,#549,#300,.T.);
#693=EDGE_CURVE('',#548,#550,#301,.T.);
#694=EDGE_CURVE('',#537,#547,#302,.T.);
#695=EDGE_CURVE('',#549,#538,#303,.T.);
#696=EDGE_CURVE('',#544,#539,#304,.T.);
#697=EDGE_CURVE('',#540,#546,#305,.T.);
#698=EDGE_CURVE('',#551,#541,#306,.T.);
#699=EDGE_CURVE('',#551,#552,#307,.T.);
#700=EDGE_CURVE('',#542,#552,#308,.T.);
#701=EDGE_CURVE('',#553,#551,#309,.T.);
#702=EDGE_CURVE('',#553,#554,#310,.T.);
#703=EDGE_CURVE('',#552,#554,#311,.T.);
#704=EDGE_CURVE('',#542,#555,#312,.T.);
#705=EDGE_CURVE('',#476,#555,#313,.T.);
#706=EDGE_CURVE('',#556,#557,#314,.T.);
#707=EDGE_CURVE('',#556,#555,#315,.T.);
#708=EDGE_CURVE('',#558,#555,#316,.T.);
#709=EDGE_CURVE('',#557,#558,#317,.T.);
#710=EDGE_CURVE('',#557,#559,#318,.T.);
#711=EDGE_CURVE('',#560,#558,#319,.T.);
#712=EDGE_CURVE('',#559,#560,#320,.T.);
#713=EDGE_CURVE('',#556,#533,#321,.T.);
#714=EDGE_CURVE('',#541,#556,#322,.T.);
#715=EDGE_CURVE('',#548,#553,#323,.T.);
#716=EDGE_CURVE('',#559,#543,#324,.T.);
#717=EDGE_CURVE('',#545,#560,#325,.T.);
#718=EDGE_CURVE('',#554,#550,#326,.T.);
#719=ORIENTED_EDGE('',*,*,#561,.F.);
#720=ORIENTED_EDGE('',*,*,#562,.F.);
#721=ORIENTED_EDGE('',*,*,#563,.F.);
#722=ORIENTED_EDGE('',*,*,#564,.F.);
#723=ORIENTED_EDGE('',*,*,#565,.F.);
#724=ORIENTED_EDGE('',*,*,#566,.F.);
#725=ORIENTED_EDGE('',*,*,#567,.F.);
#726=ORIENTED_EDGE('',*,*,#568,.F.);
#727=ORIENTED_EDGE('',*,*,#568,.T.);
#728=ORIENTED_EDGE('',*,*,#569,.F.);
#729=ORIENTED_EDGE('',*,*,#570,.T.);
#730=ORIENTED_EDGE('',*,*,#571,.T.);
#731=ORIENTED_EDGE('',*,*,#567,.T.);
#732=ORIENTED_EDGE('',*,*,#572,.T.);
#733=ORIENTED_EDGE('',*,*,#573,.T.);
#734=ORIENTED_EDGE('',*,*,#569,.T.);
#735=ORIENTED_EDGE('',*,*,#574,.T.);
#736=ORIENTED_EDGE('',*,*,#575,.F.);
#737=ORIENTED_EDGE('',*,*,#576,.F.);
#738=ORIENTED_EDGE('',*,*,#577,.T.);
#739=ORIENTED_EDGE('',*,*,#578,.T.);
#740=ORIENTED_EDGE('',*,*,#579,.F.);
#741=ORIENTED_EDGE('',*,*,#580,.T.);
#742=ORIENTED_EDGE('',*,*,#581,.T.);
#743=ORIENTED_EDGE('',*,*,#582,.T.);
#744=ORIENTED_EDGE('',*,*,#583,.T.);
#745=ORIENTED_EDGE('',*,*,#584,.T.);
#746=ORIENTED_EDGE('',*,*,#575,.T.);
#747=ORIENTED_EDGE('',*,*,#566,.T.);
#748=ORIENTED_EDGE('',*,*,#585,.F.);
#749=ORIENTED_EDGE('',*,*,#586,.T.);
#750=ORIENTED_EDGE('',*,*,#572,.F.);
#751=ORIENTED_EDGE('',*,*,#587,.T.);
#752=ORIENTED_EDGE('',*,*,#588,.F.);
#753=ORIENTED_EDGE('',*,*,#589,.F.);
#754=ORIENTED_EDGE('',*,*,#590,.T.);
#755=ORIENTED_EDGE('',*,*,#591,.T.);
#756=ORIENTED_EDGE('',*,*,#592,.F.);
#757=ORIENTED_EDGE('',*,*,#593,.F.);
#758=ORIENTED_EDGE('',*,*,#588,.T.);
#759=ORIENTED_EDGE('',*,*,#594,.T.);
#760=ORIENTED_EDGE('',*,*,#595,.F.);
#761=ORIENTED_EDGE('',*,*,#596,.F.);
#762=ORIENTED_EDGE('',*,*,#597,.T.);
#763=ORIENTED_EDGE('',*,*,#598,.T.);
#764=ORIENTED_EDGE('',*,*,#599,.F.);
#765=ORIENTED_EDGE('',*,*,#600,.F.);
#766=ORIENTED_EDGE('',*,*,#595,.T.);
#767=ORIENTED_EDGE('',*,*,#601,.T.);
#768=ORIENTED_EDGE('',*,*,#602,.F.);
#769=ORIENTED_EDGE('',*,*,#603,.F.);
#770=ORIENTED_EDGE('',*,*,#604,.T.);
#771=ORIENTED_EDGE('',*,*,#605,.T.);
#772=ORIENTED_EDGE('',*,*,#606,.F.);
#773=ORIENTED_EDGE('',*,*,#607,.F.);
#774=ORIENTED_EDGE('',*,*,#602,.T.);
#775=ORIENTED_EDGE('',*,*,#608,.T.);
#776=ORIENTED_EDGE('',*,*,#609,.F.);
#777=ORIENTED_EDGE('',*,*,#610,.F.);
#778=ORIENTED_EDGE('',*,*,#611,.T.);
#779=ORIENTED_EDGE('',*,*,#612,.T.);
#780=ORIENTED_EDGE('',*,*,#613,.F.);
#781=ORIENTED_EDGE('',*,*,#614,.F.);
#782=ORIENTED_EDGE('',*,*,#609,.T.);
#783=ORIENTED_EDGE('',*,*,#615,.T.);
#784=ORIENTED_EDGE('',*,*,#616,.F.);
#785=ORIENTED_EDGE('',*,*,#617,.F.);
#786=ORIENTED_EDGE('',*,*,#618,.F.);
#787=ORIENTED_EDGE('',*,*,#619,.T.);
#788=ORIENTED_EDGE('',*,*,#620,.T.);
#789=ORIENTED_EDGE('',*,*,#621,.T.);
#790=ORIENTED_EDGE('',*,*,#616,.T.);
#791=ORIENTED_EDGE('',*,*,#622,.T.);
#792=ORIENTED_EDGE('',*,*,#623,.F.);
#793=ORIENTED_EDGE('',*,*,#624,.T.);
#794=ORIENTED_EDGE('',*,*,#620,.F.);
#795=ORIENTED_EDGE('',*,*,#625,.T.);
#796=ORIENTED_EDGE('',*,*,#626,.T.);
#797=ORIENTED_EDGE('',*,*,#627,.T.);
#798=ORIENTED_EDGE('',*,*,#623,.T.);
#799=ORIENTED_EDGE('',*,*,#628,.F.);
#800=ORIENTED_EDGE('',*,*,#629,.T.);
#801=ORIENTED_EDGE('',*,*,#562,.T.);
#802=ORIENTED_EDGE('',*,*,#630,.F.);
#803=ORIENTED_EDGE('',*,*,#631,.F.);
#804=ORIENTED_EDGE('',*,*,#632,.T.);
#805=ORIENTED_EDGE('',*,*,#563,.T.);
#806=ORIENTED_EDGE('',*,*,#629,.F.);
#807=ORIENTED_EDGE('',*,*,#633,.F.);
#808=ORIENTED_EDGE('',*,*,#634,.T.);
#809=ORIENTED_EDGE('',*,*,#564,.T.);
#810=ORIENTED_EDGE('',*,*,#632,.F.);
#811=ORIENTED_EDGE('',*,*,#635,.F.);
#812=ORIENTED_EDGE('',*,*,#630,.T.);
#813=ORIENTED_EDGE('',*,*,#561,.T.);
#814=ORIENTED_EDGE('',*,*,#634,.F.);
#815=ORIENTED_EDGE('',*,*,#565,.T.);
#816=ORIENTED_EDGE('',*,*,#571,.F.);
#817=ORIENTED_EDGE('',*,*,#636,.T.);
#818=ORIENTED_EDGE('',*,*,#585,.T.);
#819=ORIENTED_EDGE('',*,*,#637,.T.);
#820=ORIENTED_EDGE('',*,*,#618,.T.);
#821=ORIENTED_EDGE('',*,*,#638,.T.);
#822=ORIENTED_EDGE('',*,*,#639,.T.);
#823=ORIENTED_EDGE('',*,*,#640,.T.);
#824=ORIENTED_EDGE('',*,*,#639,.F.);
#825=ORIENTED_EDGE('',*,*,#641,.T.);
#826=ORIENTED_EDGE('',*,*,#642,.F.);
#827=ORIENTED_EDGE('',*,*,#643,.T.);
#828=ORIENTED_EDGE('',*,*,#642,.T.);
#829=ORIENTED_EDGE('',*,*,#644,.T.);
#830=ORIENTED_EDGE('',*,*,#645,.T.);
#831=ORIENTED_EDGE('',*,*,#646,.T.);
#832=ORIENTED_EDGE('',*,*,#590,.F.);
#833=ORIENTED_EDGE('',*,*,#647,.F.);
#834=ORIENTED_EDGE('',*,*,#648,.T.);
#835=ORIENTED_EDGE('',*,*,#649,.T.);
#836=ORIENTED_EDGE('',*,*,#648,.F.);
#837=ORIENTED_EDGE('',*,*,#650,.F.);
#838=ORIENTED_EDGE('',*,*,#592,.T.);
#839=ORIENTED_EDGE('',*,*,#651,.T.);
#840=ORIENTED_EDGE('',*,*,#597,.F.);
#841=ORIENTED_EDGE('',*,*,#652,.F.);
#842=ORIENTED_EDGE('',*,*,#653,.T.);
#843=ORIENTED_EDGE('',*,*,#654,.T.);
#844=ORIENTED_EDGE('',*,*,#653,.F.);
#845=ORIENTED_EDGE('',*,*,#655,.F.);
#846=ORIENTED_EDGE('',*,*,#599,.T.);
#847=ORIENTED_EDGE('',*,*,#656,.T.);
#848=ORIENTED_EDGE('',*,*,#604,.F.);
#849=ORIENTED_EDGE('',*,*,#657,.F.);
#850=ORIENTED_EDGE('',*,*,#658,.T.);
#851=ORIENTED_EDGE('',*,*,#659,.T.);
#852=ORIENTED_EDGE('',*,*,#658,.F.);
#853=ORIENTED_EDGE('',*,*,#660,.F.);
#854=ORIENTED_EDGE('',*,*,#606,.T.);
#855=ORIENTED_EDGE('',*,*,#661,.T.);
#856=ORIENTED_EDGE('',*,*,#611,.F.);
#857=ORIENTED_EDGE('',*,*,#662,.F.);
#858=ORIENTED_EDGE('',*,*,#663,.T.);
#859=ORIENTED_EDGE('',*,*,#664,.T.);
#860=ORIENTED_EDGE('',*,*,#663,.F.);
#861=ORIENTED_EDGE('',*,*,#665,.F.);
#862=ORIENTED_EDGE('',*,*,#613,.T.);
#863=ORIENTED_EDGE('',*,*,#666,.T.);
#864=ORIENTED_EDGE('',*,*,#645,.F.);
#865=ORIENTED_EDGE('',*,*,#667,.F.);
#866=ORIENTED_EDGE('',*,*,#626,.F.);
#867=ORIENTED_EDGE('',*,*,#627,.F.);
#868=ORIENTED_EDGE('',*,*,#667,.T.);
#869=ORIENTED_EDGE('',*,*,#644,.F.);
#870=ORIENTED_EDGE('',*,*,#641,.F.);
#871=ORIENTED_EDGE('',*,*,#638,.F.);
#872=ORIENTED_EDGE('',*,*,#617,.T.);
#873=ORIENTED_EDGE('',*,*,#621,.F.);
#874=ORIENTED_EDGE('',*,*,#624,.F.);
#875=ORIENTED_EDGE('',*,*,#578,.F.);
#876=ORIENTED_EDGE('',*,*,#574,.F.);
#877=ORIENTED_EDGE('',*,*,#668,.F.);
#878=ORIENTED_EDGE('',*,*,#669,.F.);
#879=ORIENTED_EDGE('',*,*,#614,.T.);
#880=ORIENTED_EDGE('',*,*,#665,.T.);
#881=ORIENTED_EDGE('',*,*,#662,.T.);
#882=ORIENTED_EDGE('',*,*,#610,.T.);
#883=ORIENTED_EDGE('',*,*,#607,.T.);
#884=ORIENTED_EDGE('',*,*,#660,.T.);
#885=ORIENTED_EDGE('',*,*,#657,.T.);
#886=ORIENTED_EDGE('',*,*,#603,.T.);
#887=ORIENTED_EDGE('',*,*,#600,.T.);
#888=ORIENTED_EDGE('',*,*,#655,.T.);
#889=ORIENTED_EDGE('',*,*,#652,.T.);
#890=ORIENTED_EDGE('',*,*,#596,.T.);
#891=ORIENTED_EDGE('',*,*,#593,.T.);
#892=ORIENTED_EDGE('',*,*,#650,.T.);
#893=ORIENTED_EDGE('',*,*,#647,.T.);
#894=ORIENTED_EDGE('',*,*,#589,.T.);
#895=ORIENTED_EDGE('',*,*,#628,.T.);
#896=ORIENTED_EDGE('',*,*,#635,.T.);
#897=ORIENTED_EDGE('',*,*,#633,.T.);
#898=ORIENTED_EDGE('',*,*,#631,.T.);
#899=ORIENTED_EDGE('',*,*,#668,.T.);
#900=ORIENTED_EDGE('',*,*,#577,.F.);
#901=ORIENTED_EDGE('',*,*,#670,.F.);
#902=ORIENTED_EDGE('',*,*,#671,.F.);
#903=ORIENTED_EDGE('',*,*,#672,.F.);
#904=ORIENTED_EDGE('',*,*,#673,.F.);
#905=ORIENTED_EDGE('',*,*,#674,.F.);
#906=ORIENTED_EDGE('',*,*,#675,.F.);
#907=ORIENTED_EDGE('',*,*,#625,.F.);
#908=ORIENTED_EDGE('',*,*,#622,.F.);
#909=ORIENTED_EDGE('',*,*,#619,.F.);
#910=ORIENTED_EDGE('',*,*,#615,.F.);
#911=ORIENTED_EDGE('',*,*,#637,.F.);
#912=ORIENTED_EDGE('',*,*,#640,.F.);
#913=ORIENTED_EDGE('',*,*,#643,.F.);
#914=ORIENTED_EDGE('',*,*,#666,.F.);
#915=ORIENTED_EDGE('',*,*,#573,.F.);
#916=ORIENTED_EDGE('',*,*,#586,.F.);
#917=ORIENTED_EDGE('',*,*,#636,.F.);
#918=ORIENTED_EDGE('',*,*,#570,.F.);
#919=ORIENTED_EDGE('',*,*,#591,.F.);
#920=ORIENTED_EDGE('',*,*,#587,.F.);
#921=ORIENTED_EDGE('',*,*,#646,.F.);
#922=ORIENTED_EDGE('',*,*,#649,.F.);
#923=ORIENTED_EDGE('',*,*,#598,.F.);
#924=ORIENTED_EDGE('',*,*,#594,.F.);
#925=ORIENTED_EDGE('',*,*,#651,.F.);
#926=ORIENTED_EDGE('',*,*,#654,.F.);
#927=ORIENTED_EDGE('',*,*,#605,.F.);
#928=ORIENTED_EDGE('',*,*,#601,.F.);
#929=ORIENTED_EDGE('',*,*,#656,.F.);
#930=ORIENTED_EDGE('',*,*,#659,.F.);
#931=ORIENTED_EDGE('',*,*,#612,.F.);
#932=ORIENTED_EDGE('',*,*,#608,.F.);
#933=ORIENTED_EDGE('',*,*,#661,.F.);
#934=ORIENTED_EDGE('',*,*,#664,.F.);
#935=ORIENTED_EDGE('',*,*,#676,.F.);
#936=ORIENTED_EDGE('',*,*,#677,.T.);
#937=ORIENTED_EDGE('',*,*,#678,.T.);
#938=ORIENTED_EDGE('',*,*,#679,.T.);
#939=ORIENTED_EDGE('',*,*,#670,.T.);
#940=ORIENTED_EDGE('',*,*,#576,.T.);
#941=ORIENTED_EDGE('',*,*,#584,.F.);
#942=ORIENTED_EDGE('',*,*,#680,.F.);
#943=ORIENTED_EDGE('',*,*,#669,.T.);
#944=ORIENTED_EDGE('',*,*,#675,.T.);
#945=ORIENTED_EDGE('',*,*,#681,.T.);
#946=ORIENTED_EDGE('',*,*,#579,.T.);
#947=ORIENTED_EDGE('',*,*,#674,.T.);
#948=ORIENTED_EDGE('',*,*,#682,.T.);
#949=ORIENTED_EDGE('',*,*,#580,.F.);
#950=ORIENTED_EDGE('',*,*,#681,.F.);
#951=ORIENTED_EDGE('',*,*,#673,.T.);
#952=ORIENTED_EDGE('',*,*,#683,.F.);
#953=ORIENTED_EDGE('',*,*,#684,.T.);
#954=ORIENTED_EDGE('',*,*,#685,.F.);
#955=ORIENTED_EDGE('',*,*,#581,.F.);
#956=ORIENTED_EDGE('',*,*,#682,.F.);
#957=ORIENTED_EDGE('',*,*,#686,.F.);
#958=ORIENTED_EDGE('',*,*,#687,.F.);
#959=ORIENTED_EDGE('',*,*,#688,.F.);
#960=ORIENTED_EDGE('',*,*,#689,.T.);
#961=ORIENTED_EDGE('',*,*,#690,.F.);
#962=ORIENTED_EDGE('',*,*,#691,.T.);
#963=ORIENTED_EDGE('',*,*,#692,.F.);
#964=ORIENTED_EDGE('',*,*,#693,.F.);
#965=ORIENTED_EDGE('',*,*,#694,.F.);
#966=ORIENTED_EDGE('',*,*,#676,.T.);
#967=ORIENTED_EDGE('',*,*,#695,.F.);
#968=ORIENTED_EDGE('',*,*,#691,.F.);
#969=ORIENTED_EDGE('',*,*,#696,.F.);
#970=ORIENTED_EDGE('',*,*,#689,.F.);
#971=ORIENTED_EDGE('',*,*,#697,.F.);
#972=ORIENTED_EDGE('',*,*,#678,.F.);
#973=ORIENTED_EDGE('',*,*,#698,.F.);
#974=ORIENTED_EDGE('',*,*,#699,.T.);
#975=ORIENTED_EDGE('',*,*,#700,.F.);
#976=ORIENTED_EDGE('',*,*,#684,.F.);
#977=ORIENTED_EDGE('',*,*,#701,.F.);
#978=ORIENTED_EDGE('',*,*,#702,.T.);
#979=ORIENTED_EDGE('',*,*,#703,.F.);
#980=ORIENTED_EDGE('',*,*,#699,.F.);
#981=ORIENTED_EDGE('',*,*,#582,.F.);
#982=ORIENTED_EDGE('',*,*,#685,.T.);
#983=ORIENTED_EDGE('',*,*,#704,.T.);
#984=ORIENTED_EDGE('',*,*,#705,.F.);
#985=ORIENTED_EDGE('',*,*,#706,.F.);
#986=ORIENTED_EDGE('',*,*,#707,.T.);
#987=ORIENTED_EDGE('',*,*,#708,.F.);
#988=ORIENTED_EDGE('',*,*,#709,.F.);
#989=ORIENTED_EDGE('',*,*,#710,.F.);
#990=ORIENTED_EDGE('',*,*,#709,.T.);
#991=ORIENTED_EDGE('',*,*,#711,.F.);
#992=ORIENTED_EDGE('',*,*,#712,.F.);
#993=ORIENTED_EDGE('',*,*,#671,.T.);
#994=ORIENTED_EDGE('',*,*,#680,.T.);
#995=ORIENTED_EDGE('',*,*,#583,.F.);
#996=ORIENTED_EDGE('',*,*,#705,.T.);
#997=ORIENTED_EDGE('',*,*,#707,.F.);
#998=ORIENTED_EDGE('',*,*,#713,.T.);
#999=ORIENTED_EDGE('',*,*,#714,.F.);
#1000=ORIENTED_EDGE('',*,*,#683,.T.);
#1001=ORIENTED_EDGE('',*,*,#672,.T.);
#1002=ORIENTED_EDGE('',*,*,#713,.F.);
#1003=ORIENTED_EDGE('',*,*,#715,.T.);
#1004=ORIENTED_EDGE('',*,*,#701,.T.);
#1005=ORIENTED_EDGE('',*,*,#698,.T.);
#1006=ORIENTED_EDGE('',*,*,#714,.T.);
#1007=ORIENTED_EDGE('',*,*,#706,.T.);
#1008=ORIENTED_EDGE('',*,*,#710,.T.);
#1009=ORIENTED_EDGE('',*,*,#716,.T.);
#1010=ORIENTED_EDGE('',*,*,#686,.T.);
#1011=ORIENTED_EDGE('',*,*,#696,.T.);
#1012=ORIENTED_EDGE('',*,*,#677,.F.);
#1013=ORIENTED_EDGE('',*,*,#694,.T.);
#1014=ORIENTED_EDGE('',*,*,#690,.T.);
#1015=ORIENTED_EDGE('',*,*,#716,.F.);
#1016=ORIENTED_EDGE('',*,*,#712,.T.);
#1017=ORIENTED_EDGE('',*,*,#717,.F.);
#1018=ORIENTED_EDGE('',*,*,#687,.T.);
#1019=ORIENTED_EDGE('',*,*,#717,.T.);
#1020=ORIENTED_EDGE('',*,*,#711,.T.);
#1021=ORIENTED_EDGE('',*,*,#708,.T.);
#1022=ORIENTED_EDGE('',*,*,#704,.F.);
#1023=ORIENTED_EDGE('',*,*,#700,.T.);
#1024=ORIENTED_EDGE('',*,*,#703,.T.);
#1025=ORIENTED_EDGE('',*,*,#718,.T.);
#1026=ORIENTED_EDGE('',*,*,#692,.T.);
#1027=ORIENTED_EDGE('',*,*,#695,.T.);
#1028=ORIENTED_EDGE('',*,*,#679,.F.);
#1029=ORIENTED_EDGE('',*,*,#697,.T.);
#1030=ORIENTED_EDGE('',*,*,#688,.T.);
#1031=ORIENTED_EDGE('',*,*,#718,.F.);
#1032=ORIENTED_EDGE('',*,*,#702,.F.);
#1033=ORIENTED_EDGE('',*,*,#715,.F.);
#1034=ORIENTED_EDGE('',*,*,#693,.T.);
#1035=PLANE('',#1149);
#1036=PLANE('',#1150);
#1037=PLANE('',#1151);
#1038=PLANE('',#1152);
#1039=PLANE('',#1153);
#1040=PLANE('',#1156);
#1041=PLANE('',#1157);
#1042=PLANE('',#1164);
#1043=PLANE('',#1168);
#1044=PLANE('',#1172);
#1045=PLANE('',#1173);
#1046=PLANE('',#1177);
#1047=PLANE('',#1181);
#1048=PLANE('',#1182);
#1049=PLANE('',#1183);
#1050=PLANE('',#1184);
#1051=PLANE('',#1185);
#1052=PLANE('',#1189);
#1053=PLANE('',#1196);
#1054=PLANE('',#1197);
#1055=PLANE('',#1201);
#1056=PLANE('',#1205);
#1057=PLANE('',#1209);
#1058=PLANE('',#1210);
#1059=PLANE('',#1211);
#1060=PLANE('',#1214);
#1061=PLANE('',#1215);
#1062=PLANE('',#1216);
#1063=PLANE('',#1217);
#1064=PLANE('',#1219);
#1065=PLANE('',#1220);
#1066=PLANE('',#1221);
#1067=PLANE('',#1222);
#1068=PLANE('',#1223);
#1069=PLANE('',#1224);
#1070=PLANE('',#1225);
#1071=PLANE('',#1226);
#1072=PLANE('',#1227);
#1073=PLANE('',#1229);
#1074=PLANE('',#1230);
#1075=PLANE('',#1231);
#1076=PLANE('',#1232);
#1077=PLANE('',#1233);
#1078=ADVANCED_FACE('',(#70,#57),#1035,.F.);
#1079=ADVANCED_FACE('',(#71),#1036,.F.);
#1080=ADVANCED_FACE('',(#72),#1037,.F.);
#1081=ADVANCED_FACE('',(#73),#1038,.T.);
#1082=ADVANCED_FACE('',(#74),#1039,.T.);
#1083=ADVANCED_FACE('',(#75),#1040,.F.);
#1084=ADVANCED_FACE('',(#76),#1041,.F.);
#1085=ADVANCED_FACE('',(#77),#15,.F.);
#1086=ADVANCED_FACE('',(#78),#16,.F.);
#1087=ADVANCED_FACE('',(#79),#1042,.F.);
#1088=ADVANCED_FACE('',(#80),#17,.F.);
#1089=ADVANCED_FACE('',(#81),#1043,.F.);
#1090=ADVANCED_FACE('',(#82),#18,.F.);
#1091=ADVANCED_FACE('',(#83),#1044,.F.);
#1092=ADVANCED_FACE('',(#84),#1045,.T.);
#1093=ADVANCED_FACE('',(#85),#19,.T.);
#1094=ADVANCED_FACE('',(#86),#1046,.T.);
#1095=ADVANCED_FACE('',(#87),#20,.T.);
#1096=ADVANCED_FACE('',(#88),#1047,.F.);
#1097=ADVANCED_FACE('',(#89),#1048,.F.);
#1098=ADVANCED_FACE('',(#90),#1049,.F.);
#1099=ADVANCED_FACE('',(#91),#1050,.F.);
#1100=ADVANCED_FACE('',(#92),#1051,.F.);
#1101=ADVANCED_FACE('',(#93),#21,.T.);
#1102=ADVANCED_FACE('',(#94),#1052,.T.);
#1103=ADVANCED_FACE('',(#95),#22,.T.);
#1104=ADVANCED_FACE('',(#96),#23,.F.);
#1105=ADVANCED_FACE('',(#97),#1053,.F.);
#1106=ADVANCED_FACE('',(#98),#1054,.F.);
#1107=ADVANCED_FACE('',(#99),#24,.F.);
#1108=ADVANCED_FACE('',(#100),#1055,.F.);
#1109=ADVANCED_FACE('',(#101),#25,.F.);
#1110=ADVANCED_FACE('',(#102),#1056,.F.);
#1111=ADVANCED_FACE('',(#103),#26,.F.);
#1112=ADVANCED_FACE('',(#104),#1057,.T.);
#1113=ADVANCED_FACE('',(#105,#58,#59,#60,#61,#62,#63),#1058,.F.);
#1114=ADVANCED_FACE('',(#106),#1059,.F.);
#1115=ADVANCED_FACE('',(#107,#64,#65,#66,#67,#68,#69),#1060,.T.);
#1116=ADVANCED_FACE('',(#108),#1061,.T.);
#1117=ADVANCED_FACE('',(#109),#1062,.T.);
#1118=ADVANCED_FACE('',(#110),#1063,.T.);
#1119=ADVANCED_FACE('',(#111),#27,.T.);
#1120=ADVANCED_FACE('',(#112),#1064,.T.);
#1121=ADVANCED_FACE('',(#113),#1065,.T.);
#1122=ADVANCED_FACE('',(#114),#1066,.T.);
#1123=ADVANCED_FACE('',(#115),#1067,.T.);
#1124=ADVANCED_FACE('',(#116),#1068,.T.);
#1125=ADVANCED_FACE('',(#117),#1069,.T.);
#1126=ADVANCED_FACE('',(#118),#1070,.F.);
#1127=ADVANCED_FACE('',(#119),#1071,.T.);
#1128=ADVANCED_FACE('',(#120),#1072,.T.);
#1129=ADVANCED_FACE('',(#121),#28,.T.);
#1130=ADVANCED_FACE('',(#122),#1073,.F.);
#1131=ADVANCED_FACE('',(#123),#1074,.T.);
#1132=ADVANCED_FACE('',(#124),#1075,.T.);
#1133=ADVANCED_FACE('',(#125),#1076,.F.);
#1134=ADVANCED_FACE('',(#126),#1077,.T.);
#1135=CLOSED_SHELL('',(#1078,#1079,#1080,#1081,#1082,#1083,#1084,#1085,
#1086,#1087,#1088,#1089,#1090,#1091,#1092,#1093,#1094,#1095,#1096,#1097,
#1098,#1099,#1100,#1101,#1102,#1103,#1104,#1105,#1106,#1107,#1108,#1109,
#1110,#1111,#1112,#1113,#1114,#1115,#1116,#1117,#1118,#1119,#1120,#1121,
#1122,#1123,#1124,#1125,#1126,#1127,#1128,#1129,#1130,#1131,#1132,#1133,
#1134));
#1136=DERIVED_UNIT_ELEMENT(#1138,1.);
#1137=DERIVED_UNIT_ELEMENT(#1861,-3.);
#1138=(
MASS_UNIT()
NAMED_UNIT(*)
SI_UNIT(.KILO.,.GRAM.)
);
#1139=DERIVED_UNIT((#1136,#1137));
#1140=MEASURE_REPRESENTATION_ITEM('density measure',
POSITIVE_RATIO_MEASURE(7850.),#1139);
#1141=PROPERTY_DEFINITION_REPRESENTATION(#1146,#1143);
#1142=PROPERTY_DEFINITION_REPRESENTATION(#1147,#1144);
#1143=REPRESENTATION('material name',(#1145),#1858);
#1144=REPRESENTATION('density',(#1140),#1858);
#1145=DESCRIPTIVE_REPRESENTATION_ITEM('Steel','Steel');
#1146=PROPERTY_DEFINITION('material property','material name',#1868);
#1147=PROPERTY_DEFINITION('material property','density of part',#1868);
#1148=AXIS2_PLACEMENT_3D('',#1536,#1234,#1235);
#1149=AXIS2_PLACEMENT_3D('',#1537,#1236,#1237);
#1150=AXIS2_PLACEMENT_3D('',#1554,#1246,#1247);
#1151=AXIS2_PLACEMENT_3D('',#1560,#1251,#1252);
#1152=AXIS2_PLACEMENT_3D('',#1564,#1255,#1256);
#1153=AXIS2_PLACEMENT_3D('',#1573,#1261,#1262);
#1154=AXIS2_PLACEMENT_3D('',#1581,#1266,#1267);
#1155=AXIS2_PLACEMENT_3D('',#1585,#1269,#1270);
#1156=AXIS2_PLACEMENT_3D('',#1587,#1272,#1273);
#1157=AXIS2_PLACEMENT_3D('',#1591,#1276,#1277);
#1158=AXIS2_PLACEMENT_3D('',#1600,#1282,#1283);
#1159=AXIS2_PLACEMENT_3D('',#1602,#1284,#1285);
#1160=AXIS2_PLACEMENT_3D('',#1605,#1287,#1288);
#1161=AXIS2_PLACEMENT_3D('',#1606,#1289,#1290);
#1162=AXIS2_PLACEMENT_3D('',#1609,#1291,#1292);
#1163=AXIS2_PLACEMENT_3D('',#1613,#1294,#1295);
#1164=AXIS2_PLACEMENT_3D('',#1615,#1297,#1298);
#1165=AXIS2_PLACEMENT_3D('',#1621,#1302,#1303);
#1166=AXIS2_PLACEMENT_3D('',#1624,#1304,#1305);
#1167=AXIS2_PLACEMENT_3D('',#1628,#1307,#1308);
#1168=AXIS2_PLACEMENT_3D('',#1630,#1310,#1311);
#1169=AXIS2_PLACEMENT_3D('',#1636,#1315,#1316);
#1170=AXIS2_PLACEMENT_3D('',#1639,#1317,#1318);
#1171=AXIS2_PLACEMENT_3D('',#1643,#1320,#1321);
#1172=AXIS2_PLACEMENT_3D('',#1645,#1323,#1324);
#1173=AXIS2_PLACEMENT_3D('',#1651,#1328,#1329);
#1174=AXIS2_PLACEMENT_3D('',#1660,#1334,#1335);
#1175=AXIS2_PLACEMENT_3D('',#1662,#1336,#1337);
#1176=AXIS2_PLACEMENT_3D('',#1665,#1339,#1340);
#1177=AXIS2_PLACEMENT_3D('',#1666,#1341,#1342);
#1178=AXIS2_PLACEMENT_3D('',#1672,#1346,#1347);
#1179=AXIS2_PLACEMENT_3D('',#1674,#1348,#1349);
#1180=AXIS2_PLACEMENT_3D('',#1677,#1351,#1352);
#1181=AXIS2_PLACEMENT_3D('',#1678,#1353,#1354);
#1182=AXIS2_PLACEMENT_3D('',#1684,#1358,#1359);
#1183=AXIS2_PLACEMENT_3D('',#1688,#1362,#1363);
#1184=AXIS2_PLACEMENT_3D('',#1692,#1366,#1367);
#1185=AXIS2_PLACEMENT_3D('',#1694,#1369,#1370);
#1186=AXIS2_PLACEMENT_3D('',#1696,#1372,#1373);
#1187=AXIS2_PLACEMENT_3D('',#1698,#1374,#1375);
#1188=AXIS2_PLACEMENT_3D('',#1700,#1376,#1377);
#1189=AXIS2_PLACEMENT_3D('',#1702,#1379,#1380);
#1190=AXIS2_PLACEMENT_3D('',#1708,#1384,#1385);
#1191=AXIS2_PLACEMENT_3D('',#1710,#1386,#1387);
#1192=AXIS2_PLACEMENT_3D('',#1712,#1388,#1389);
#1193=AXIS2_PLACEMENT_3D('',#1714,#1391,#1392);
#1194=AXIS2_PLACEMENT_3D('',#1716,#1393,#1394);
#1195=AXIS2_PLACEMENT_3D('',#1718,#1395,#1396);
#1196=AXIS2_PLACEMENT_3D('',#1720,#1398,#1399);
#1197=AXIS2_PLACEMENT_3D('',#1723,#1402,#1403);
#1198=AXIS2_PLACEMENT_3D('',#1729,#1407,#1408);
#1199=AXIS2_PLACEMENT_3D('',#1730,#1409,#1410);
#1200=AXIS2_PLACEMENT_3D('',#1731,#1411,#1412);
#1201=AXIS2_PLACEMENT_3D('',#1732,#1413,#1414);
#1202=AXIS2_PLACEMENT_3D('',#1738,#1418,#1419);
#1203=AXIS2_PLACEMENT_3D('',#1739,#1420,#1421);
#1204=AXIS2_PLACEMENT_3D('',#1740,#1422,#1423);
#1205=AXIS2_PLACEMENT_3D('',#1741,#1424,#1425);
#1206=AXIS2_PLACEMENT_3D('',#1747,#1429,#1430);
#1207=AXIS2_PLACEMENT_3D('',#1748,#1431,#1432);
#1208=AXIS2_PLACEMENT_3D('',#1749,#1433,#1434);
#1209=AXIS2_PLACEMENT_3D('',#1750,#1435,#1436);
#1210=AXIS2_PLACEMENT_3D('',#1753,#1439,#1440);
#1211=AXIS2_PLACEMENT_3D('',#1757,#1443,#1444);
#1212=AXIS2_PLACEMENT_3D('',#1761,#1446,#1447);
#1213=AXIS2_PLACEMENT_3D('',#1765,#1449,#1450);
#1214=AXIS2_PLACEMENT_3D('',#1769,#1453,#1454);
#1215=AXIS2_PLACEMENT_3D('',#1778,#1459,#1460);
#1216=AXIS2_PLACEMENT_3D('',#1780,#1462,#1463);
#1217=AXIS2_PLACEMENT_3D('',#1782,#1465,#1466);
#1218=AXIS2_PLACEMENT_3D('',#1784,#1468,#1469);
#1219=AXIS2_PLACEMENT_3D('',#1790,#1473,#1474);
#1220=AXIS2_PLACEMENT_3D('',#1799,#1479,#1480);
#1221=AXIS2_PLACEMENT_3D('',#1808,#1485,#1486);
#1222=AXIS2_PLACEMENT_3D('',#1811,#1489,#1490);
#1223=AXIS2_PLACEMENT_3D('',#1814,#1493,#1494);
#1224=AXIS2_PLACEMENT_3D('',#1820,#1498,#1499);
#1225=AXIS2_PLACEMENT_3D('',#1826,#1503,#1504);
#1226=AXIS2_PLACEMENT_3D('',#1830,#1507,#1508);
#1227=AXIS2_PLACEMENT_3D('',#1838,#1513,#1514);
#1228=AXIS2_PLACEMENT_3D('',#1844,#1518,#1519);
#1229=AXIS2_PLACEMENT_3D('',#1846,#1521,#1522);
#1230=AXIS2_PLACEMENT_3D('',#1848,#1524,#1525);
#1231=AXIS2_PLACEMENT_3D('',#1851,#1528,#1529);
#1232=AXIS2_PLACEMENT_3D('',#1853,#1531,#1532);
#1233=AXIS2_PLACEMENT_3D('',#1855,#1534,#1535);
#1234=DIRECTION('axis',(0.,0.,1.));
#1235=DIRECTION('refdir',(1.,0.,0.));
#1236=DIRECTION('center_axis',(0.,0.,-1.));
#1237=DIRECTION('ref_axis',(-1.,0.,0.));
#1238=DIRECTION('',(-1.,0.,-1.22464679914735E-16));
#1239=DIRECTION('',(0.,-1.,0.));
#1240=DIRECTION('',(1.,0.,1.22464679914735E-16));
#1241=DIRECTION('',(2.86509167645202E-16,1.,3.50872535083069E-32));
#1242=DIRECTION('',(0.,1.,0.));
#1243=DIRECTION('',(1.,0.,0.));
#1244=DIRECTION('',(0.,-1.,0.));
#1245=DIRECTION('',(-1.,0.,0.));
#1246=DIRECTION('center_axis',(0.,1.,0.));
#1247=DIRECTION('ref_axis',(-1.,0.,-1.22464679914735E-16));
#1248=DIRECTION('',(-1.22464679914735E-16,0.,1.));
#1249=DIRECTION('',(1.,0.,0.));
#1250=DIRECTION('',(-1.22464679914735E-16,0.,1.));
#1251=DIRECTION('center_axis',(-1.,0.,-1.22464679914735E-16));
#1252=DIRECTION('ref_axis',(0.,-1.,0.));
#1253=DIRECTION('',(1.22464679914735E-16,0.,-1.));
#1254=DIRECTION('',(0.,1.,0.));
#1255=DIRECTION('center_axis',(1.22464679914735E-16,-1.,2.83276944600005E-16));
#1256=DIRECTION('ref_axis',(1.22464679914735E-16,-2.83276944600005E-16,
-1.));
#1257=DIRECTION('',(1.,1.22464679914735E-16,0.));
#1258=DIRECTION('',(0.,0.,-1.));
#1259=DIRECTION('',(1.,1.22464679914735E-16,1.22464679914735E-16));
#1260=DIRECTION('',(0.,-2.83276944600005E-16,-1.));
#1261=DIRECTION('center_axis',(1.,1.22464679914735E-16,1.22464679914735E-16));
#1262=DIRECTION('ref_axis',(1.22464679914735E-16,-2.22044604925031E-16,
-1.));
#1263=DIRECTION('',(-1.22464679914735E-16,1.,0.));
#1264=DIRECTION('',(0.,0.,-1.));
#1265=DIRECTION('',(1.22464679914735E-16,-1.,2.22044604925031E-16));
#1266=DIRECTION('center_axis',(1.,1.22464679914735E-16,1.22464679914735E-16));
#1267=DIRECTION('ref_axis',(-1.22464679914735E-16,2.22044604925031E-16,
1.));
#1268=DIRECTION('',(1.22464679914736E-16,-1.,-2.68908003548026E-15));
#1269=DIRECTION('center_axis',(1.,1.22464679914735E-16,1.22464679914735E-16));
#1270=DIRECTION('ref_axis',(-1.22464679914735E-16,1.,-2.22044604925031E-16));
#1271=DIRECTION('',(1.22464679914735E-16,-1.,1.80807749724668E-15));
#1272=DIRECTION('center_axis',(0.,-1.,0.));
#1273=DIRECTION('ref_axis',(1.,0.,1.22464679914735E-16));
#1274=DIRECTION('',(-1.22464679914735E-16,0.,1.));
#1275=DIRECTION('',(-1.,0.,0.));
#1276=DIRECTION('center_axis',(-3.4160708450005E-16,-1.,-4.18348022599045E-32));
#1277=DIRECTION('ref_axis',(-1.,3.4160708450005E-16,-1.22464679914735E-16));
#1278=DIRECTION('',(-1.,3.4160708450005E-16,0.));
#1279=DIRECTION('',(0.,0.,-1.));
#1280=DIRECTION('',(-1.,3.4160708450005E-16,-1.22464679914735E-16));
#1281=DIRECTION('',(0.,0.,-1.));
#1282=DIRECTION('center_axis',(1.22464679914735E-16,0.,-1.));
#1283=DIRECTION('ref_axis',(-1.,0.,-1.22464679914735E-16));
#1284=DIRECTION('center_axis',(0.,0.,-1.));
#1285=DIRECTION('ref_axis',(-1.,0.,-1.22464679914735E-16));
#1286=DIRECTION('',(1.22464679914735E-16,0.,-1.));
#1287=DIRECTION('center_axis',(1.22464679914735E-16,0.,-1.));
#1288=DIRECTION('ref_axis',(-1.,0.,-1.22464679914735E-16));
#1289=DIRECTION('center_axis',(1.22464679914735E-16,0.,-1.));
#1290=DIRECTION('ref_axis',(-1.,0.,-1.22464679914735E-16));
#1291=DIRECTION('center_axis',(0.,0.,-1.));
#1292=DIRECTION('ref_axis',(-1.,0.,-1.22464679914735E-16));
#1293=DIRECTION('',(0.,0.,-1.));
#1294=DIRECTION('center_axis',(1.22464679914735E-16,0.,-1.));
#1295=DIRECTION('ref_axis',(-1.,0.,-1.22464679914735E-16));
#1296=DIRECTION('',(0.,0.,-1.));
#1297=DIRECTION('center_axis',(1.90757609851526E-6,0.999999999998181,2.33610696317671E-22));
#1298=DIRECTION('ref_axis',(0.999999999998181,-1.90757609851526E-6,1.22464679914513E-16));
#1299=DIRECTION('',(0.999999999998181,-1.90757609851526E-6,0.));
#1300=DIRECTION('',(1.22464679914735E-16,0.,-1.));
#1301=DIRECTION('',(0.999999999998181,-1.90757609851526E-6,1.22464679914513E-16));
#1302=DIRECTION('center_axis',(1.22464679914735E-16,0.,-1.));
#1303=DIRECTION('ref_axis',(-1.,0.,-1.22464679914735E-16));
#1304=DIRECTION('center_axis',(0.,0.,-1.));
#1305=DIRECTION('ref_axis',(-1.,0.,-1.22464679914735E-16));
#1306=DIRECTION('',(0.,0.,-1.));
#1307=DIRECTION('center_axis',(1.22464679914735E-16,0.,-1.));
#1308=DIRECTION('ref_axis',(-1.,0.,-1.22464679914735E-16));
#1309=DIRECTION('',(0.,0.,-1.));
#1310=DIRECTION('center_axis',(6.83214169000103E-16,1.,8.36696045198096E-32));
#1311=DIRECTION('ref_axis',(1.,-6.83214169000103E-16,1.22464679914735E-16));
#1312=DIRECTION('',(1.,-6.83214169000103E-16,0.));
#1313=DIRECTION('',(1.22464679914735E-16,0.,-1.));
#1314=DIRECTION('',(1.,-6.83214169000103E-16,1.22464679914735E-16));
#1315=DIRECTION('center_axis',(1.22464679914735E-16,0.,-1.));
#1316=DIRECTION('ref_axis',(-1.,0.,-1.22464679914735E-16));
#1317=DIRECTION('center_axis',(0.,0.,-1.));
#1318=DIRECTION('ref_axis',(-1.,0.,-1.22464679914735E-16));
#1319=DIRECTION('',(0.,0.,-1.));
#1320=DIRECTION('center_axis',(1.22464679914735E-16,0.,-1.));
#1321=DIRECTION('ref_axis',(-1.,0.,-1.22464679914735E-16));
#1322=DIRECTION('',(0.,0.,-1.));
#1323=DIRECTION('center_axis',(1.90757609885732E-6,0.999999999998181,2.33610696359562E-22));
#1324=DIRECTION('ref_axis',(0.999999999998181,-1.90757609885732E-6,1.22464679914513E-16));
#1325=DIRECTION('',(0.999999999998181,-1.90757609885732E-6,0.));
#1326=DIRECTION('',(1.22464679914735E-16,0.,-1.));
#1327=DIRECTION('',(0.999999999998181,-1.90757609885732E-6,1.22464679914513E-16));
#1328=DIRECTION('center_axis',(0.,1.,0.));
#1329=DIRECTION('ref_axis',(1.,0.,1.22464679914735E-16));
#1330=DIRECTION('',(-1.,0.,0.));
#1331=DIRECTION('',(1.22464679914735E-16,0.,-1.));
#1332=DIRECTION('',(-1.,0.,-1.22464679914735E-16));
#1333=DIRECTION('',(-1.22464679914735E-16,0.,1.));
#1334=DIRECTION('center_axis',(1.22464679914735E-16,0.,-1.));
#1335=DIRECTION('ref_axis',(-0.707106781186547,0.707106781186547,-8.65956056235493E-17));
#1336=DIRECTION('center_axis',(0.,0.,1.));
#1337=DIRECTION('ref_axis',(-0.707106781186547,0.707106781186547,-8.65956056235493E-17));
#1338=DIRECTION('',(-1.22464679914735E-16,0.,1.));
#1339=DIRECTION('center_axis',(1.22464679914735E-16,0.,-1.));
#1340=DIRECTION('ref_axis',(-0.707106781186547,0.707106781186547,-8.65956056235493E-17));
#1341=DIRECTION('center_axis',(-1.,0.,-1.22464679914735E-16));
#1342=DIRECTION('ref_axis',(0.,1.,0.));
#1343=DIRECTION('',(0.,-1.,0.));
#1344=DIRECTION('',(1.22464679914735E-16,0.,-1.));
#1345=DIRECTION('',(0.,1.,0.));
#1346=DIRECTION('center_axis',(1.22464679914735E-16,0.,-1.));
#1347=DIRECTION('ref_axis',(-0.707106781186547,-0.707106781186547,-8.65956056235493E-17));
#1348=DIRECTION('center_axis',(0.,0.,1.));
#1349=DIRECTION('ref_axis',(-0.707106781186547,-0.707106781186547,-8.65956056235493E-17));
#1350=DIRECTION('',(-1.22464679914735E-16,0.,1.));
#1351=DIRECTION('center_axis',(1.22464679914735E-16,0.,-1.));
#1352=DIRECTION('ref_axis',(-0.707106781186547,-0.707106781186547,-8.65956056235493E-17));
#1353=DIRECTION('center_axis',(1.,0.,1.22464679914735E-16));
#1354=DIRECTION('ref_axis',(0.,-1.,0.));
#1355=DIRECTION('',(0.,-1.,0.));
#1356=DIRECTION('',(1.22464679914735E-16,0.,-1.));
#1357=DIRECTION('',(1.22464679914735E-16,0.,-1.));
#1358=DIRECTION('center_axis',(0.,1.,0.));
#1359=DIRECTION('ref_axis',(1.,0.,1.22464679914735E-16));
#1360=DIRECTION('',(1.,0.,1.22464679914735E-16));
#1361=DIRECTION('',(1.22464679914735E-16,0.,-1.));
#1362=DIRECTION('center_axis',(-1.,2.86509167645202E-16,-1.22464679914735E-16));
#1363=DIRECTION('ref_axis',(2.86509167645202E-16,1.,3.50872535083069E-32));
#1364=DIRECTION('',(2.86509167645202E-16,1.,3.50872535083069E-32));
#1365=DIRECTION('',(1.22464679914735E-16,0.,-1.));
#1366=DIRECTION('center_axis',(0.,-1.,0.));
#1367=DIRECTION('ref_axis',(-1.,0.,-1.22464679914735E-16));
#1368=DIRECTION('',(-1.,0.,-1.22464679914735E-16));
#1369=DIRECTION('center_axis',(1.,0.,1.22464679914735E-16));
#1370=DIRECTION('ref_axis',(0.,1.,0.));
#1371=DIRECTION('',(0.,-1.,0.));
#1372=DIRECTION('center_axis',(1.22464679914735E-16,0.,-1.));
#1373=DIRECTION('ref_axis',(0.707106781186547,0.707106781186547,8.65956056235493E-17));
#1374=DIRECTION('center_axis',(0.,0.,1.));
#1375=DIRECTION('ref_axis',(0.707106781186547,0.707106781186547,8.65956056235493E-17));
#1376=DIRECTION('center_axis',(1.22464679914735E-16,0.,-1.));
#1377=DIRECTION('ref_axis',(0.707106781186547,0.707106781186547,8.65956056235493E-17));
#1378=DIRECTION('',(1.22464679914735E-16,0.,-1.));
#1379=DIRECTION('center_axis',(1.,0.,1.22464679914735E-16));
#1380=DIRECTION('ref_axis',(0.,-1.,0.));
#1381=DIRECTION('',(0.,1.,0.));
#1382=DIRECTION('',(0.,-1.,0.));
#1383=DIRECTION('',(-1.22464679914735E-16,0.,1.));
#1384=DIRECTION('center_axis',(1.22464679914735E-16,0.,-1.));
#1385=DIRECTION('ref_axis',(0.707106781186547,-0.707106781186547,8.65956056235493E-17));
#1386=DIRECTION('center_axis',(0.,0.,1.));
#1387=DIRECTION('ref_axis',(0.707106781186547,-0.707106781186547,8.65956056235493E-17));
#1388=DIRECTION('center_axis',(1.22464679914735E-16,0.,-1.));
#1389=DIRECTION('ref_axis',(0.707106781186547,-0.707106781186547,8.65956056235493E-17));
#1390=DIRECTION('',(1.22464679914735E-16,0.,-1.));
#1391=DIRECTION('center_axis',(1.22464679914735E-16,0.,-1.));
#1392=DIRECTION('ref_axis',(1.,1.22464679914735E-16,1.22464679914735E-16));
#1393=DIRECTION('center_axis',(0.,0.,-1.));
#1394=DIRECTION('ref_axis',(-1.,0.,-1.22464679914735E-16));
#1395=DIRECTION('center_axis',(1.22464679914735E-16,0.,-1.));
#1396=DIRECTION('ref_axis',(-1.,0.,-1.22464679914735E-16));
#1397=DIRECTION('',(0.,0.,-1.));
#1398=DIRECTION('center_axis',(0.,1.,0.));
#1399=DIRECTION('ref_axis',(1.,0.,1.22464679914735E-16));
#1400=DIRECTION('',(1.,0.,0.));
#1401=DIRECTION('',(1.,0.,1.22464679914735E-16));
#1402=DIRECTION('center_axis',(1.90757609851528E-6,-0.999999999998181,2.33610696317673E-22));
#1403=DIRECTION('ref_axis',(-0.999999999998181,-1.90757609851528E-6,-1.22464679914513E-16));
#1404=DIRECTION('',(-0.999999999998181,-1.90757609851528E-6,0.));
#1405=DIRECTION('',(-0.999999999998181,-1.90757609851528E-6,-1.22464679914513E-16));
#1406=DIRECTION('',(0.,0.,-1.));
#1407=DIRECTION('center_axis',(1.22464679914735E-16,0.,-1.));
#1408=DIRECTION('ref_axis',(1.,1.22464679914735E-16,1.22464679914735E-16));
#1409=DIRECTION('center_axis',(0.,0.,-1.));
#1410=DIRECTION('ref_axis',(-1.,0.,-1.22464679914735E-16));
#1411=DIRECTION('center_axis',(1.22464679914735E-16,0.,-1.));
#1412=DIRECTION('ref_axis',(-1.,0.,-1.22464679914735E-16));
#1413=DIRECTION('center_axis',(6.83214169000111E-16,-1.,8.36696045198105E-32));
#1414=DIRECTION('ref_axis',(-1.,-6.83214169000111E-16,-1.22464679914735E-16));
#1415=DIRECTION('',(-1.,-6.83214169000111E-16,0.));
#1416=DIRECTION('',(-1.,-6.83214169000111E-16,-1.22464679914735E-16));
#1417=DIRECTION('',(0.,0.,-1.));
#1418=DIRECTION('center_axis',(1.22464679914735E-16,0.,-1.));
#1419=DIRECTION('ref_axis',(1.,1.22464679914735E-16,1.22464679914735E-16));
#1420=DIRECTION('center_axis',(0.,0.,-1.));
#1421=DIRECTION('ref_axis',(-1.,0.,-1.22464679914735E-16));
#1422=DIRECTION('center_axis',(1.22464679914735E-16,0.,-1.));
#1423=DIRECTION('ref_axis',(-1.,0.,-1.22464679914735E-16));
#1424=DIRECTION('center_axis',(1.90757609885737E-6,-0.999999999998181,2.33610696359567E-22));
#1425=DIRECTION('ref_axis',(-0.999999999998181,-1.90757609885737E-6,-1.22464679914513E-16));
#1426=DIRECTION('',(-0.999999999998181,-1.90757609885737E-6,0.));
#1427=DIRECTION('',(-0.999999999998181,-1.90757609885737E-6,-1.22464679914513E-16));
#1428=DIRECTION('',(0.,0.,-1.));
#1429=DIRECTION('center_axis',(1.22464679914735E-16,0.,-1.));
#1430=DIRECTION('ref_axis',(1.,1.22464679914735E-16,1.22464679914735E-16));
#1431=DIRECTION('center_axis',(0.,0.,-1.));
#1432=DIRECTION('ref_axis',(-1.,0.,-1.22464679914735E-16));
#1433=DIRECTION('center_axis',(1.22464679914735E-16,0.,-1.));
#1434=DIRECTION('ref_axis',(-1.,0.,-1.22464679914735E-16));
#1435=DIRECTION('center_axis',(0.,-1.,0.));
#1436=DIRECTION('ref_axis',(-1.,0.,-1.22464679914735E-16));
#1437=DIRECTION('',(1.,0.,0.));
#1438=DIRECTION('',(1.,0.,1.22464679914735E-16));
#1439=DIRECTION('center_axis',(1.22464679914735E-16,0.,-1.));
#1440=DIRECTION('ref_axis',(-1.,0.,-1.22464679914735E-16));
#1441=DIRECTION('',(1.22464679914735E-16,-1.,0.));
#1442=DIRECTION('',(-1.,-1.22464679914735E-16,0.));
#1443=DIRECTION('center_axis',(1.,1.22464679914735E-16,1.22464679914735E-16));
#1444=DIRECTION('ref_axis',(1.22464679914735E-16,-2.22044604925031E-16,
-1.));
#1445=DIRECTION('',(0.,-1.,1.80807749724668E-15));
#1446=DIRECTION('center_axis',(1.,0.,0.));
#1447=DIRECTION('ref_axis',(-1.22464679914735E-16,1.,-2.22044604925031E-16));
#1448=DIRECTION('',(1.22464679914736E-16,-1.,-2.68908003548026E-15));
#1449=DIRECTION('center_axis',(1.,0.,0.));
#1450=DIRECTION('ref_axis',(-1.22464679914735E-16,2.22044604925031E-16,
1.));
#1451=DIRECTION('',(0.,-1.,2.22044604925031E-16));
#1452=DIRECTION('',(0.,2.22044604925031E-16,1.));
#1453=DIRECTION('center_axis',(1.22464679914735E-16,0.,-1.));
#1454=DIRECTION('ref_axis',(-1.,0.,-1.22464679914735E-16));
#1455=DIRECTION('',(1.,0.,1.22464679914735E-16));
#1456=DIRECTION('',(0.,-1.,0.));
#1457=DIRECTION('',(1.,1.22464679914735E-16,1.22464679914735E-16));
#1458=DIRECTION('',(-1.22464679914735E-16,1.,-2.22044604925031E-16));
#1459=DIRECTION('center_axis',(-1.22464679914736E-16,1.80807749724668E-15,
1.));
#1460=DIRECTION('ref_axis',(1.22464679914735E-16,-1.,1.80807749724668E-15));
#1461=DIRECTION('',(1.,1.22464679914735E-16,1.22464679914735E-16));
#1462=DIRECTION('center_axis',(-1.22464679914735E-16,1.,-2.22044604925031E-16));
#1463=DIRECTION('ref_axis',(-1.22464679914735E-16,2.22044604925031E-16,
1.));
#1464=DIRECTION('',(1.,1.22464679914735E-16,1.22464679914735E-16));
#1465=DIRECTION('center_axis',(-1.22464679914735E-16,2.22044604925031E-16,
1.));
#1466=DIRECTION('ref_axis',(1.22464679914735E-16,-1.,2.22044604925031E-16));
#1467=DIRECTION('',(1.,1.22464679914735E-16,1.22464679914735E-16));
#1468=DIRECTION('center_axis',(1.,1.22464679914735E-16,1.22464679914735E-16));
#1469=DIRECTION('ref_axis',(-1.22464679914735E-16,2.22044604925031E-16,
1.));
#1470=DIRECTION('',(-1.,-1.22464679914735E-16,-1.22464679914735E-16));
#1471=DIRECTION('',(1.,1.22464679914735E-16,1.22464679914735E-16));
#1472=DIRECTION('',(-1.,-1.22464679914735E-16,-1.22464679914735E-16));
#1473=DIRECTION('center_axis',(-1.22464679914735E-16,0.,1.));
#1474=DIRECTION('ref_axis',(1.,0.,1.22464679914735E-16));
#1475=DIRECTION('',(-1.22464679914735E-16,1.,-1.49975978266186E-32));
#1476=DIRECTION('',(-1.,-1.22464679914735E-16,-1.22464679914735E-16));
#1477=DIRECTION('',(1.22464679914735E-16,-1.,1.49975978266186E-32));
#1478=DIRECTION('',(-1.,-1.22464679914735E-16,-1.22464679914735E-16));
#1479=DIRECTION('center_axis',(-1.22464679914735E-16,0.,1.));
#1480=DIRECTION('ref_axis',(1.,0.,1.22464679914735E-16));
#1481=DIRECTION('',(-1.22464679914735E-16,1.,-1.49975978266186E-32));
#1482=DIRECTION('',(1.,0.,1.22464679914735E-16));
#1483=DIRECTION('',(1.22464679914735E-16,-1.,1.49975978266186E-32));
#1484=DIRECTION('',(1.,1.22464679914735E-16,1.22464679914735E-16));
#1485=DIRECTION('center_axis',(0.,-1.,0.));
#1486=DIRECTION('ref_axis',(1.,0.,1.22464679914735E-16));
#1487=DIRECTION('',(-1.22464679914735E-16,0.,1.));
#1488=DIRECTION('',(1.22464679914735E-16,0.,-1.));
#1489=DIRECTION('center_axis',(-1.22464679914735E-16,1.,-2.22044604925031E-16));
#1490=DIRECTION('ref_axis',(-1.22464679914735E-16,2.22044604925031E-16,
1.));
#1491=DIRECTION('',(1.22464679914735E-16,0.,-1.));
#1492=DIRECTION('',(-1.22464679914735E-16,0.,1.));
#1493=DIRECTION('center_axis',(1.22464679914735E-16,-1.,2.22044604925031E-16));
#1494=DIRECTION('ref_axis',(1.22464679914735E-16,-2.22044604925031E-16,
-1.));
#1495=DIRECTION('',(-1.22464679914735E-16,2.22044604925031E-16,1.));
#1496=DIRECTION('',(1.,1.22464679914735E-16,1.22464679914735E-16));
#1497=DIRECTION('',(1.22464679914735E-16,-2.22044604925031E-16,-1.));
#1498=DIRECTION('center_axis',(1.22464679914735E-16,-2.22044604925031E-16,
-1.));
#1499=DIRECTION('ref_axis',(-1.22464679914735E-16,1.,-2.22044604925031E-16));
#1500=DIRECTION('',(1.22464679914735E-16,-1.,2.22044604925031E-16));
#1501=DIRECTION('',(1.,1.22464679914735E-16,1.22464679914735E-16));
#1502=DIRECTION('',(-1.22464679914735E-16,1.,-2.22044604925031E-16));
#1503=DIRECTION('center_axis',(1.22464679914735E-16,2.68908003548026E-15,
-1.));
#1504=DIRECTION('ref_axis',(1.22464679914736E-16,-1.,-2.68908003548026E-15));
#1505=DIRECTION('',(1.22464679914736E-16,-1.,-2.68908003548026E-15));
#1506=DIRECTION('',(-1.,-1.22464679914735E-16,-1.22464679914735E-16));
#1507=DIRECTION('center_axis',(-1.22464679914735E-16,1.,-5.92118946466765E-16));
#1508=DIRECTION('ref_axis',(-1.22464679914735E-16,5.92118946466765E-16,
1.));
#1509=DIRECTION('',(1.22464679914735E-16,-5.92118946466765E-16,-1.));
#1510=DIRECTION('',(1.,1.22464679914735E-16,1.22464679914735E-16));
#1511=DIRECTION('',(-1.22464679914735E-16,5.92118946466765E-16,1.));
#1512=DIRECTION('',(1.,1.22464679914735E-16,1.22464679914735E-16));
#1513=DIRECTION('center_axis',(1.22464679914735E-16,-2.22044604925031E-16,
-1.));
#1514=DIRECTION('ref_axis',(-1.22464679914735E-16,1.,-2.22044604925031E-16));
#1515=DIRECTION('',(1.22464679914735E-16,-1.,2.22044604925031E-16));
#1516=DIRECTION('',(-1.22464679914735E-16,1.,-2.22044604925031E-16));
#1517=DIRECTION('',(1.,1.22464679914735E-16,1.22464679914735E-16));
#1518=DIRECTION('center_axis',(1.,1.22464679914735E-16,1.22464679914735E-16));
#1519=DIRECTION('ref_axis',(-1.22464679914735E-16,1.,-2.22044604925031E-16));
#1520=DIRECTION('',(-1.,-1.22464679914735E-16,-1.22464679914735E-16));
#1521=DIRECTION('center_axis',(1.22464679914735E-16,2.68908003548026E-15,
-1.));
#1522=DIRECTION('ref_axis',(1.22464679914736E-16,-1.,-2.68908003548026E-15));
#1523=DIRECTION('',(1.22464679914736E-16,-1.,-2.68908003548026E-15));
#1524=DIRECTION('center_axis',(1.,1.22464679914735E-16,1.22464679914735E-16));
#1525=DIRECTION('ref_axis',(1.22464679914735E-16,-2.22044604925031E-16,
-1.));
#1526=DIRECTION('',(-1.22464679914735E-16,2.22044604925031E-16,1.));
#1527=DIRECTION('',(1.22464679914735E-16,-2.22044604925031E-16,-1.));
#1528=DIRECTION('center_axis',(-1.22464679914735E-16,1.,-2.22044604925031E-16));
#1529=DIRECTION('ref_axis',(-1.22464679914735E-16,2.22044604925031E-16,
1.));
#1530=DIRECTION('',(-1.22464679914735E-16,2.22044604925031E-16,1.));
#1531=DIRECTION('center_axis',(1.,1.22464679914735E-16,1.22464679914735E-16));
#1532=DIRECTION('ref_axis',(1.22464679914735E-16,-2.22044604925031E-16,
-1.));
#1533=DIRECTION('',(1.22464679914735E-16,-2.22044604925031E-16,-1.));
#1534=DIRECTION('center_axis',(1.22464679914735E-16,-1.,2.22044604925031E-16));
#1535=DIRECTION('ref_axis',(1.22464679914735E-16,-2.22044604925031E-16,
-1.));
#1536=CARTESIAN_POINT('',(0.,0.,0.));
#1537=CARTESIAN_POINT('Origin',(201.599994322658,22.250000559492,1.10000000000003));
#1538=CARTESIAN_POINT('',(226.999994322658,6.75000055949205,1.10000000000003));
#1539=CARTESIAN_POINT('',(176.199994322658,6.75000055949205,1.10000000000002));
#1540=CARTESIAN_POINT('',(226.999994322658,6.75000055949205,1.10000000000003));
#1541=CARTESIAN_POINT('',(226.999994322658,37.750000559492,1.10000000000003));
#1542=CARTESIAN_POINT('',(226.999994322658,37.750000559492,1.10000000000003));
#1543=CARTESIAN_POINT('',(176.199994322658,37.750000559492,1.10000000000002));
#1544=CARTESIAN_POINT('',(176.199994322658,37.750000559492,1.10000000000002));
#1545=CARTESIAN_POINT('',(176.199994322658,6.75000055949205,1.10000000000002));
#1546=CARTESIAN_POINT('',(224.999994322658,8.75000055949204,1.10000000000003));
#1547=CARTESIAN_POINT('',(224.999994322658,35.750000559492,1.10000000000003));
#1548=CARTESIAN_POINT('',(224.999994322658,15.500000559492,1.10000000000003));
#1549=CARTESIAN_POINT('',(178.199994322658,8.75000055949204,1.10000000000002));
#1550=CARTESIAN_POINT('',(189.899994322658,8.75000055949204,1.10000000000003));
#1551=CARTESIAN_POINT('',(178.199994322658,35.750000559492,1.10000000000002));
#1552=CARTESIAN_POINT('',(178.199994322658,29.000000559492,1.10000000000003));
#1553=CARTESIAN_POINT('',(213.299994322658,35.750000559492,1.10000000000003));
#1554=CARTESIAN_POINT('Origin',(224.999994322658,35.750000559492,3.50000000000003));
#1555=CARTESIAN_POINT('',(178.199994322658,35.750000559492,2.19269047363468E-14));
#1556=CARTESIAN_POINT('',(178.199994322658,35.750000559492,3.50000000000002));
#1557=CARTESIAN_POINT('',(224.999994322658,35.750000559492,2.63677968348475E-14));
#1558=CARTESIAN_POINT('',(175.999995741993,35.750000559492,-2.22044604925031E-14));
#1559=CARTESIAN_POINT('',(224.999994322658,35.750000559492,3.50000000000003));
#1560=CARTESIAN_POINT('Origin',(178.199994322658,35.750000559492,3.50000000000002));
#1561=CARTESIAN_POINT('',(178.199994322658,8.75000055949204,2.19269047363468E-14));
#1562=CARTESIAN_POINT('',(178.199994322658,8.75000055949204,3.50000000000002));
#1563=CARTESIAN_POINT('',(178.199994322658,29.000000419619,-2.22044604925031E-14));
#1564=CARTESIAN_POINT('Origin',(138.2,5.85,11.2499999999999));
#1565=CARTESIAN_POINT('',(138.2,5.85,5.99999999999998));
#1566=CARTESIAN_POINT('',(156.2,5.85,5.99999999999998));
#1567=CARTESIAN_POINT('',(132.599998580664,5.85,5.99999999999998));
#1568=CARTESIAN_POINT('',(156.2,5.85,11.2499999999999));
#1569=CARTESIAN_POINT('',(156.2,5.85,2.99999999999992));
#1570=CARTESIAN_POINT('',(138.2,5.85,11.2499999999999));
#1571=CARTESIAN_POINT('',(138.2,5.85,11.2499999999999));
#1572=CARTESIAN_POINT('',(138.2,5.85,5.62499999999995));
#1573=CARTESIAN_POINT('Origin',(156.2,18.35,5.62499999999998));
#1574=CARTESIAN_POINT('',(156.2,30.85,5.99999999999998));
#1575=CARTESIAN_POINT('',(156.2,20.300000139873,5.99999999999998));
#1576=CARTESIAN_POINT('',(156.2,30.85,11.25));
#1577=CARTESIAN_POINT('',(156.2,30.85,2.99999999999992));
#1578=CARTESIAN_POINT('',(156.2,29.7,11.25));
#1579=CARTESIAN_POINT('',(156.2,30.85,11.25));
#1580=CARTESIAN_POINT('',(156.2,28.2,9.74999999999997));
#1581=CARTESIAN_POINT('Origin',(156.2,29.7,9.74999999999998));
#1582=CARTESIAN_POINT('',(156.2,8.75000000000001,9.74999999999992));
#1583=CARTESIAN_POINT('',(156.2,28.2,9.74999999999997));
#1584=CARTESIAN_POINT('',(156.2,7.25000000000001,11.2499999999999));
#1585=CARTESIAN_POINT('Origin',(156.2,7.25000000000001,9.74999999999992));
#1586=CARTESIAN_POINT('',(156.2,7.25000000000001,11.2499999999999));
#1587=CARTESIAN_POINT('Origin',(178.199994322658,8.75000055949204,3.50000000000002));
#1588=CARTESIAN_POINT('',(224.999994322658,8.75000055949204,2.63677968348475E-14));
#1589=CARTESIAN_POINT('',(224.999994322658,8.75000055949204,3.50000000000003));
#1590=CARTESIAN_POINT('',(152.599995741993,8.75000055949204,-2.22044604925031E-14));
#1591=CARTESIAN_POINT('Origin',(249.299994322658,34.900000559492,6.00000000000003));
#1592=CARTESIAN_POINT('',(249.299994322658,34.900000559492,3.08086889333481E-14));
#1593=CARTESIAN_POINT('',(242.799994322658,34.900000559492,2.85882428840978E-14));
#1594=CARTESIAN_POINT('',(188.149995741993,34.9000005594921,-2.22044604925031E-14));
#1595=CARTESIAN_POINT('',(242.799994322658,34.900000559492,6.00000000000003));
#1596=CARTESIAN_POINT('',(242.799994322658,34.900000559492,3.00000000000003));
#1597=CARTESIAN_POINT('',(249.299994322658,34.900000559492,6.00000000000003));
#1598=CARTESIAN_POINT('',(188.149995741993,34.9000005594921,6.00000000000002));
#1599=CARTESIAN_POINT('',(249.299994322658,34.900000559492,3.00000000000003));
#1600=CARTESIAN_POINT('Origin',(242.799994322658,38.1500005594921,6.00000000000003));
#1601=CARTESIAN_POINT('',(242.799994322658,41.400000559492,2.85882428840978E-14));
#1602=CARTESIAN_POINT('Origin',(242.799994322658,38.1500005594921,-7.7715611723761E-15));
#1603=CARTESIAN_POINT('',(242.799994322658,41.400000559492,6.00000000000003));
#1604=CARTESIAN_POINT('',(242.799994322658,41.400000559492,6.00000000000003));
#1605=CARTESIAN_POINT('Origin',(242.799994322658,38.1500005594921,6.00000000000003));
#1606=CARTESIAN_POINT('Origin',(4.69999999999999,38.1500005594921,6.));
#1607=CARTESIAN_POINT('',(4.70000619962235,34.900000559498,-2.77555756156289E-16));
#1608=CARTESIAN_POINT('',(4.70000619962235,41.4000005594861,-2.77555756156289E-16));
#1609=CARTESIAN_POINT('Origin',(4.69999999999999,38.1500005594921,-3.66373598126302E-14));
#1610=CARTESIAN_POINT('',(4.70000619962235,41.4000005594861,6.));
#1611=CARTESIAN_POINT('',(4.70000619962235,41.4000005594861,3.));
#1612=CARTESIAN_POINT('',(4.70000619962235,34.900000559498,6.));
#1613=CARTESIAN_POINT('Origin',(4.69999999999999,38.1500005594921,6.));
#1614=CARTESIAN_POINT('',(4.70000619962235,34.900000559498,3.));
#1615=CARTESIAN_POINT('Origin',(4.70000619962235,41.4000005594861,6.));
#1616=CARTESIAN_POINT('',(11.1910287313332,41.3999881773667,-2.77555756156289E-16));
#1617=CARTESIAN_POINT('',(65.8500199452945,41.3998839111815,-2.22044604925031E-14));
#1618=CARTESIAN_POINT('',(11.1910287313332,41.3999881773667,6.));
#1619=CARTESIAN_POINT('',(11.1910287313332,41.3999881773667,6.));
#1620=CARTESIAN_POINT('',(65.8500199452945,41.3998839111815,6.00000000000001));
#1621=CARTESIAN_POINT('Origin',(242.799994322658,6.35,6.00000000000003));
#1622=CARTESIAN_POINT('',(242.799994322658,3.1,2.85882428840978E-14));
#1623=CARTESIAN_POINT('',(242.799994322658,9.60000000000001,2.85882428840978E-14));
#1624=CARTESIAN_POINT('Origin',(242.799994322658,6.35,-7.7715611723761E-15));
#1625=CARTESIAN_POINT('',(242.799994322658,9.60000000000001,6.00000000000003));
#1626=CARTESIAN_POINT('',(242.799994322658,9.60000000000001,3.00000000000003));
#1627=CARTESIAN_POINT('',(242.799994322658,3.1,6.00000000000003));
#1628=CARTESIAN_POINT('Origin',(242.799994322658,6.35,6.00000000000003));
#1629=CARTESIAN_POINT('',(242.799994322658,3.1,3.00000000000003));
#1630=CARTESIAN_POINT('Origin',(242.799994322658,9.60000000000001,6.00000000000003));
#1631=CARTESIAN_POINT('',(249.299994322658,9.60000000000001,3.08086889333481E-14));
#1632=CARTESIAN_POINT('',(184.899995741993,9.60000000000005,-2.22044604925031E-14));
#1633=CARTESIAN_POINT('',(249.299994322658,9.60000000000001,6.00000000000003));
#1634=CARTESIAN_POINT('',(249.299994322658,9.60000000000001,6.00000000000003));
#1635=CARTESIAN_POINT('',(184.899995741993,9.60000000000004,6.00000000000002));
#1636=CARTESIAN_POINT('Origin',(4.69999999999999,6.35,6.));
#1637=CARTESIAN_POINT('',(4.70000619962242,3.10000000000592,-2.77555756156289E-16));
#1638=CARTESIAN_POINT('',(4.70000619962228,9.59999999999409,-2.77555756156289E-16));
#1639=CARTESIAN_POINT('Origin',(4.69999999999999,6.35,-3.66373598126302E-14));
#1640=CARTESIAN_POINT('',(4.70000619962228,9.59999999999409,6.));
#1641=CARTESIAN_POINT('',(4.70000619962228,9.59999999999409,3.));
#1642=CARTESIAN_POINT('',(4.70000619962242,3.10000000000592,6.));
#1643=CARTESIAN_POINT('Origin',(4.69999999999999,6.35,6.));
#1644=CARTESIAN_POINT('',(4.70000619962242,3.10000000000592,3.));
#1645=CARTESIAN_POINT('Origin',(4.70000619962228,9.59999999999409,6.));
#1646=CARTESIAN_POINT('',(11.1910287313332,9.59998761787466,-2.77555756156289E-16));
#1647=CARTESIAN_POINT('',(65.8499896148339,9.59988335174728,-2.22044604925031E-14));
#1648=CARTESIAN_POINT('',(11.1910287313332,9.59998761787466,6.));
#1649=CARTESIAN_POINT('',(11.1910287313332,9.59998761787466,6.));
#1650=CARTESIAN_POINT('',(65.8499896148339,9.59988335174728,6.00000000000001));
#1651=CARTESIAN_POINT('Origin',(0.,44.500000559492,6.));
#1652=CARTESIAN_POINT('',(248.999994322658,44.500000559492,3.08086889333481E-14));
#1653=CARTESIAN_POINT('',(5.,44.500000559492,-2.77555756156289E-16));
#1654=CARTESIAN_POINT('',(63.4999985806644,44.500000559492,-2.22044604925031E-14));
#1655=CARTESIAN_POINT('',(5.,44.500000559492,6.));
#1656=CARTESIAN_POINT('',(5.,44.500000559492,6.));
#1657=CARTESIAN_POINT('',(248.999994322658,44.500000559492,6.00000000000003));
#1658=CARTESIAN_POINT('',(9.09291967833074,44.500000559492,6.));
#1659=CARTESIAN_POINT('',(248.999994322658,44.500000559492,6.00000000000003));
#1660=CARTESIAN_POINT('Origin',(5.,39.500000559492,6.));
#1661=CARTESIAN_POINT('',(0.,39.500000559492,-2.77555756156289E-16));
#1662=CARTESIAN_POINT('Origin',(5.,39.500000559492,-3.66373598126302E-14));
#1663=CARTESIAN_POINT('',(0.,39.500000559492,6.));
#1664=CARTESIAN_POINT('',(0.,39.500000559492,6.));
#1665=CARTESIAN_POINT('Origin',(5.,39.500000559492,6.));
#1666=CARTESIAN_POINT('Origin',(0.,0.,6.));
#1667=CARTESIAN_POINT('',(0.,5.,-2.77555756156289E-16));
#1668=CARTESIAN_POINT('',(0.,11.125000139873,-2.22044604925031E-14));
#1669=CARTESIAN_POINT('',(0.,5.,6.));
#1670=CARTESIAN_POINT('',(0.,5.,6.));
#1671=CARTESIAN_POINT('',(0.,0.,6.));
#1672=CARTESIAN_POINT('Origin',(5.,5.,6.));
#1673=CARTESIAN_POINT('',(5.,0.,-2.77555756156289E-16));
#1674=CARTESIAN_POINT('Origin',(5.,5.,-3.66373598126302E-14));
#1675=CARTESIAN_POINT('',(5.,0.,6.));
#1676=CARTESIAN_POINT('',(5.,0.,6.));
#1677=CARTESIAN_POINT('Origin',(5.,5.,6.));
#1678=CARTESIAN_POINT('Origin',(226.999994322658,37.750000559492,6.00000000000003));
#1679=CARTESIAN_POINT('',(226.999994322658,37.750000559492,6.00000000000003));
#1680=CARTESIAN_POINT('',(226.999994322658,6.75000055949205,6.00000000000003));
#1681=CARTESIAN_POINT('',(226.999994322658,30.000000419619,6.00000000000003));
#1682=CARTESIAN_POINT('',(226.999994322658,37.750000559492,6.00000000000003));
#1683=CARTESIAN_POINT('',(226.999994322658,6.75000055949205,6.00000000000003));
#1684=CARTESIAN_POINT('Origin',(176.199994322658,37.750000559492,6.00000000000002));
#1685=CARTESIAN_POINT('',(176.199994322658,37.750000559492,6.00000000000002));
#1686=CARTESIAN_POINT('',(151.599995741993,37.750000559492,6.00000000000002));
#1687=CARTESIAN_POINT('',(176.199994322658,37.750000559492,6.00000000000002));
#1688=CARTESIAN_POINT('Origin',(176.199994322658,6.75000055949205,6.00000000000002));
#1689=CARTESIAN_POINT('',(176.199994322658,6.75000055949205,6.00000000000002));
#1690=CARTESIAN_POINT('',(176.199994322658,14.500000419619,6.00000000000002));
#1691=CARTESIAN_POINT('',(176.199994322658,6.75000055949205,6.00000000000002));
#1692=CARTESIAN_POINT('Origin',(226.999994322658,6.75000055949205,6.00000000000003));
#1693=CARTESIAN_POINT('',(176.999995741993,6.75000055949205,6.00000000000002));
#1694=CARTESIAN_POINT('Origin',(224.999994322658,8.75000055949204,3.50000000000003));
#1695=CARTESIAN_POINT('',(224.999994322658,15.500000419619,-2.22044604925031E-14));
#1696=CARTESIAN_POINT('Origin',(248.999994322658,39.500000559492,6.00000000000003));
#1697=CARTESIAN_POINT('',(253.999994322658,39.500000559492,3.08086889333481E-14));
#1698=CARTESIAN_POINT('Origin',(248.999994322658,39.500000559492,-7.7715611723761E-15));
#1699=CARTESIAN_POINT('',(253.999994322658,39.500000559492,6.00000000000003));
#1700=CARTESIAN_POINT('Origin',(248.999994322658,39.500000559492,6.00000000000003));
#1701=CARTESIAN_POINT('',(253.999994322658,39.500000559492,6.00000000000003));
#1702=CARTESIAN_POINT('Origin',(253.999994322658,44.500000559492,6.00000000000003));
#1703=CARTESIAN_POINT('',(253.999994322658,5.,3.08086889333481E-14));
#1704=CARTESIAN_POINT('',(253.999994322658,33.375000419619,-2.22044604925031E-14));
#1705=CARTESIAN_POINT('',(253.999994322658,5.,6.00000000000003));
#1706=CARTESIAN_POINT('',(253.999994322658,44.500000559492,6.00000000000003));
#1707=CARTESIAN_POINT('',(253.999994322658,5.,6.00000000000003));
#1708=CARTESIAN_POINT('Origin',(248.999994322658,5.,6.00000000000003));
#1709=CARTESIAN_POINT('',(248.999994322658,0.,3.08086889333481E-14));
#1710=CARTESIAN_POINT('Origin',(248.999994322658,5.,-7.7715611723761E-15));
#1711=CARTESIAN_POINT('',(248.999994322658,0.,6.00000000000003));
#1712=CARTESIAN_POINT('Origin',(248.999994322658,5.,6.00000000000003));
#1713=CARTESIAN_POINT('',(248.999994322658,0.,6.00000000000003));
#1714=CARTESIAN_POINT('Origin',(249.299994322658,38.1500005594921,6.00000000000003));
#1715=CARTESIAN_POINT('',(249.299994322658,41.400000559492,3.08086889333481E-14));
#1716=CARTESIAN_POINT('Origin',(249.299994322658,38.1500005594921,-7.7715611723761E-15));
#1717=CARTESIAN_POINT('',(249.299994322658,41.400000559492,6.00000000000003));
#1718=CARTESIAN_POINT('Origin',(249.299994322658,38.1500005594921,6.00000000000003));
#1719=CARTESIAN_POINT('',(249.299994322658,41.400000559492,3.00000000000003));
#1720=CARTESIAN_POINT('Origin',(242.799994322658,41.400000559492,6.00000000000003));
#1721=CARTESIAN_POINT('',(184.899995741993,41.400000559492,-2.22044604925031E-14));
#1722=CARTESIAN_POINT('',(184.899995741993,41.400000559492,6.00000000000002));
#1723=CARTESIAN_POINT('Origin',(11.1910287313332,34.9000129416174,6.));
#1724=CARTESIAN_POINT('',(11.1910287313332,34.9000129416174,-2.77555756156289E-16));
#1725=CARTESIAN_POINT('',(69.0955008806894,34.9001233988045,-2.22044604925031E-14));
#1726=CARTESIAN_POINT('',(11.1910287313332,34.9000129416174,6.));
#1727=CARTESIAN_POINT('',(69.0955008806894,34.9001233988045,6.00000000000001));
#1728=CARTESIAN_POINT('',(11.1910287313332,34.9000129416174,3.));
#1729=CARTESIAN_POINT('Origin',(11.2,38.1500005594921,6.));
#1730=CARTESIAN_POINT('Origin',(11.2,38.1500005594921,-3.66373598126302E-14));
#1731=CARTESIAN_POINT('Origin',(11.2,38.1500005594921,6.));
#1732=CARTESIAN_POINT('Origin',(249.299994322658,3.1,6.00000000000003));
#1733=CARTESIAN_POINT('',(249.299994322658,3.1,3.08086889333481E-14));
#1734=CARTESIAN_POINT('',(188.149995741993,3.09999999999996,-2.22044604925031E-14));
#1735=CARTESIAN_POINT('',(249.299994322658,3.1,6.00000000000003));
#1736=CARTESIAN_POINT('',(188.149995741993,3.09999999999997,6.00000000000002));
#1737=CARTESIAN_POINT('',(249.299994322658,3.1,3.00000000000003));
#1738=CARTESIAN_POINT('Origin',(249.299994322658,6.35,6.00000000000003));
#1739=CARTESIAN_POINT('Origin',(249.299994322658,6.35,-7.7715611723761E-15));
#1740=CARTESIAN_POINT('Origin',(249.299994322658,6.35,6.00000000000003));
#1741=CARTESIAN_POINT('Origin',(11.1910287313332,3.10001238212536,6.));
#1742=CARTESIAN_POINT('',(11.1910287313332,3.10001238212536,-2.77555756156289E-16));
#1743=CARTESIAN_POINT('',(69.0955312111499,3.1001228393703,-2.22044604925031E-14));
#1744=CARTESIAN_POINT('',(11.1910287313332,3.10001238212536,6.));
#1745=CARTESIAN_POINT('',(69.0955312111499,3.10012283937031,6.00000000000001));
#1746=CARTESIAN_POINT('',(11.1910287313332,3.10001238212536,3.));
#1747=CARTESIAN_POINT('Origin',(11.2,6.35,6.));
#1748=CARTESIAN_POINT('Origin',(11.2,6.35,-3.66373598126302E-14));
#1749=CARTESIAN_POINT('Origin',(11.2,6.35,6.));
#1750=CARTESIAN_POINT('Origin',(253.999994322658,0.,6.00000000000003));
#1751=CARTESIAN_POINT('',(190.499995741993,0.,-2.22044604925031E-14));
#1752=CARTESIAN_POINT('',(250.640003033914,0.,6.00000000000003));
#1753=CARTESIAN_POINT('Origin',(126.999997161329,22.250000279746,6.00000000000002));
#1754=CARTESIAN_POINT('',(138.2,30.85,5.99999999999998));
#1755=CARTESIAN_POINT('',(138.2,20.300000139873,5.99999999999998));
#1756=CARTESIAN_POINT('',(133.299998580664,30.85,5.99999999999998));
#1757=CARTESIAN_POINT('Origin',(138.2,18.35,5.62499999999998));
#1758=CARTESIAN_POINT('',(138.2,7.25000000000001,11.2499999999999));
#1759=CARTESIAN_POINT('',(138.2,6.55000000000002,11.2499999999999));
#1760=CARTESIAN_POINT('',(138.2,8.75000000000001,9.74999999999992));
#1761=CARTESIAN_POINT('Origin',(138.2,7.25000000000001,9.74999999999992));
#1762=CARTESIAN_POINT('',(138.2,28.2,9.74999999999997));
#1763=CARTESIAN_POINT('',(138.2,28.2,9.74999999999997));
#1764=CARTESIAN_POINT('',(138.2,29.7,11.25));
#1765=CARTESIAN_POINT('Origin',(138.2,29.7,9.74999999999998));
#1766=CARTESIAN_POINT('',(138.2,30.85,11.25));
#1767=CARTESIAN_POINT('',(138.2,27.905,11.25));
#1768=CARTESIAN_POINT('',(138.2,30.85,-2.33146835171283E-14));
#1769=CARTESIAN_POINT('Origin',(116.750002838671,24.000000279746,-2.33146835171283E-14));
#1770=CARTESIAN_POINT('',(139.6,24.96,-2.33146835171283E-14));
#1771=CARTESIAN_POINT('',(154.8,24.96,-1.88737914186277E-14));
#1772=CARTESIAN_POINT('',(23.4,24.96,-3.66373598126302E-14));
#1773=CARTESIAN_POINT('',(139.6,8.75000000000001,-1.88737914186277E-14));
#1774=CARTESIAN_POINT('',(139.6,14.925000419619,-2.1094237467878E-14));
#1775=CARTESIAN_POINT('',(154.8,8.75000000000001,-1.66533453693773E-14));
#1776=CARTESIAN_POINT('',(139.6,8.75000000000001,-1.88737914186277E-14));
#1777=CARTESIAN_POINT('',(154.8,5.85,-1.66533453693773E-14));
#1778=CARTESIAN_POINT('Origin',(138.2,7.25000000000001,11.2499999999999));
#1779=CARTESIAN_POINT('',(138.2,7.25000000000001,11.2499999999999));
#1780=CARTESIAN_POINT('Origin',(139.6,30.85,-2.33146835171283E-14));
#1781=CARTESIAN_POINT('',(139.6,30.85,11.25));
#1782=CARTESIAN_POINT('Origin',(139.6,30.85,11.25));
#1783=CARTESIAN_POINT('',(139.6,29.7,11.25));
#1784=CARTESIAN_POINT('Origin',(139.6,29.7,9.74999999999998));
#1785=CARTESIAN_POINT('',(139.6,28.2,9.74999999999997));
#1786=CARTESIAN_POINT('',(139.6,28.2,9.74999999999997));
#1787=CARTESIAN_POINT('',(154.8,28.2,9.74999999999997));
#1788=CARTESIAN_POINT('',(139.6,28.2,9.74999999999997));
#1789=CARTESIAN_POINT('',(156.2,28.2,9.74999999999997));
#1790=CARTESIAN_POINT('Origin',(139.6,8.75000000000001,1.99999999999998));
#1791=CARTESIAN_POINT('',(139.6,7.25000000000001,1.99999999999998));
#1792=CARTESIAN_POINT('',(139.6,8.75000000000001,1.99999999999998));
#1793=CARTESIAN_POINT('',(139.6,13.55,1.99999999999998));
#1794=CARTESIAN_POINT('',(154.8,7.25000000000001,1.99999999999998));
#1795=CARTESIAN_POINT('',(139.6,7.25000000000001,1.99999999999998));
#1796=CARTESIAN_POINT('',(154.8,8.75000000000001,1.99999999999998));
#1797=CARTESIAN_POINT('',(154.8,13.55,1.99999999999998));
#1798=CARTESIAN_POINT('',(139.6,8.75000000000001,1.99999999999998));
#1799=CARTESIAN_POINT('Origin',(139.6,29.7,1.99999999999998));
#1800=CARTESIAN_POINT('',(139.6,24.96,1.99999999999998));
#1801=CARTESIAN_POINT('',(139.6,29.7,1.99999999999998));
#1802=CARTESIAN_POINT('',(139.6,24.025,1.99999999999998));
#1803=CARTESIAN_POINT('',(154.8,24.96,1.99999999999998));
#1804=CARTESIAN_POINT('',(23.4,24.96,1.99999999999997));
#1805=CARTESIAN_POINT('',(154.8,29.7,1.99999999999998));
#1806=CARTESIAN_POINT('',(154.8,24.025,1.99999999999998));
#1807=CARTESIAN_POINT('',(139.6,29.7,1.99999999999998));
#1808=CARTESIAN_POINT('Origin',(23.4,24.96,-3.66373598126302E-14));
#1809=CARTESIAN_POINT('',(139.6,24.96,2.81249999999998));
#1810=CARTESIAN_POINT('',(154.8,24.96,2.81249999999998));
#1811=CARTESIAN_POINT('Origin',(139.6,8.75000000000001,-1.88737914186277E-14));
#1812=CARTESIAN_POINT('',(139.6,8.75000000000001,3.38749999999998));
#1813=CARTESIAN_POINT('',(154.8,8.75000000000001,3.38749999999998));
#1814=CARTESIAN_POINT('Origin',(139.6,28.2,9.74999999999997));
#1815=CARTESIAN_POINT('',(139.6,28.2,8.24999999999998));
#1816=CARTESIAN_POINT('',(139.6,28.2,8.24999999999998));
#1817=CARTESIAN_POINT('',(154.8,28.2,8.24999999999998));
#1818=CARTESIAN_POINT('',(139.6,28.2,8.24999999999998));
#1819=CARTESIAN_POINT('',(154.8,28.2,8.24999999999998));
#1820=CARTESIAN_POINT('Origin',(139.6,28.2,8.24999999999998));
#1821=CARTESIAN_POINT('',(139.6,29.7,8.24999999999997));
#1822=CARTESIAN_POINT('',(139.6,29.7,8.24999999999997));
#1823=CARTESIAN_POINT('',(154.8,29.7,8.24999999999998));
#1824=CARTESIAN_POINT('',(139.6,29.7,8.24999999999997));
#1825=CARTESIAN_POINT('',(154.8,29.7,8.24999999999998));
#1826=CARTESIAN_POINT('Origin',(156.2,28.2,9.74999999999997));
#1827=CARTESIAN_POINT('',(154.8,8.75000000000001,9.74999999999992));
#1828=CARTESIAN_POINT('',(154.8,28.2,9.74999999999997));
#1829=CARTESIAN_POINT('',(156.2,8.75000000000001,9.74999999999992));
#1830=CARTESIAN_POINT('Origin',(139.6,8.75000000000001,8.24999999999998));
#1831=CARTESIAN_POINT('',(139.6,8.75000000000001,9.74999999999992));
#1832=CARTESIAN_POINT('',(139.6,8.75000000000001,8.24999999999998));
#1833=CARTESIAN_POINT('',(139.6,8.75000000000001,6.93749999999998));
#1834=CARTESIAN_POINT('',(139.6,8.75000000000001,9.74999999999992));
#1835=CARTESIAN_POINT('',(154.8,8.75000000000001,8.24999999999998));
#1836=CARTESIAN_POINT('',(154.8,8.75000000000001,6.93749999999998));
#1837=CARTESIAN_POINT('',(139.6,8.75000000000001,8.24999999999998));
#1838=CARTESIAN_POINT('Origin',(139.6,7.25000000000001,8.24999999999998));
#1839=CARTESIAN_POINT('',(139.6,7.25000000000001,8.24999999999998));
#1840=CARTESIAN_POINT('',(139.6,12.8,8.24999999999998));
#1841=CARTESIAN_POINT('',(154.8,7.25000000000001,8.24999999999998));
#1842=CARTESIAN_POINT('',(154.8,12.8,8.24999999999998));
#1843=CARTESIAN_POINT('',(139.6,7.25000000000001,8.24999999999998));
#1844=CARTESIAN_POINT('Origin',(138.2,7.25000000000001,9.74999999999992));
#1845=CARTESIAN_POINT('',(139.6,8.75000000000001,9.74999999999992));
#1846=CARTESIAN_POINT('Origin',(139.6,28.2,9.74999999999997));
#1847=CARTESIAN_POINT('',(139.6,28.2,9.74999999999997));
#1848=CARTESIAN_POINT('Origin',(139.6,18.35,5.62499999999998));
#1849=CARTESIAN_POINT('',(139.6,29.7,1.14999999999998));
#1850=CARTESIAN_POINT('',(139.6,7.25000000000001,3.38749999999998));
#1851=CARTESIAN_POINT('Origin',(139.6,7.25000000000001,1.14999999999998));
#1852=CARTESIAN_POINT('',(154.8,7.25000000000001,3.38749999999998));
#1853=CARTESIAN_POINT('Origin',(154.8,18.35,5.62499999999998));
#1854=CARTESIAN_POINT('',(154.8,29.7,1.14999999999998));
#1855=CARTESIAN_POINT('Origin',(139.6,29.7,8.24999999999997));
#1856=UNCERTAINTY_MEASURE_WITH_UNIT(LENGTH_MEASURE(0.01),#1860,
'DISTANCE_ACCURACY_VALUE',
'Maximum model space distance between geometric entities at asserted c
onnectivities');
#1857=UNCERTAINTY_MEASURE_WITH_UNIT(LENGTH_MEASURE(0.01),#1860,
'DISTANCE_ACCURACY_VALUE',
'Maximum model space distance between geometric entities at asserted c
onnectivities');
#1858=(
GEOMETRIC_REPRESENTATION_CONTEXT(3)
GLOBAL_UNCERTAINTY_ASSIGNED_CONTEXT((#1856))
GLOBAL_UNIT_ASSIGNED_CONTEXT((#1860,#1862,#1863))
REPRESENTATION_CONTEXT('','3D')
);
#1859=(
GEOMETRIC_REPRESENTATION_CONTEXT(3)
GLOBAL_UNCERTAINTY_ASSIGNED_CONTEXT((#1857))
GLOBAL_UNIT_ASSIGNED_CONTEXT((#1860,#1862,#1863))
REPRESENTATION_CONTEXT('','3D')
);
#1860=(
LENGTH_UNIT()
NAMED_UNIT(*)
SI_UNIT(.MILLI.,.METRE.)
);
#1861=(
LENGTH_UNIT()
NAMED_UNIT(*)
SI_UNIT($,.METRE.)
);
#1862=(
NAMED_UNIT(*)
PLANE_ANGLE_UNIT()
SI_UNIT($,.RADIAN.)
);
#1863=(
NAMED_UNIT(*)
SI_UNIT($,.STERADIAN.)
SOLID_ANGLE_UNIT()
);
#1864=SHAPE_DEFINITION_REPRESENTATION(#1865,#1866);
#1865=PRODUCT_DEFINITION_SHAPE('',$,#1868);
#1866=SHAPE_REPRESENTATION('',(#1148),#1858);
#1867=PRODUCT_DEFINITION_CONTEXT('part definition',#1872,'design');
#1868=PRODUCT_DEFINITION('2026-05-28-12-53-01-030',
'mini-rack-backplate',#1869,#1867);
#1869=PRODUCT_DEFINITION_FORMATION('',$,#1874);
#1870=PRODUCT_RELATED_PRODUCT_CATEGORY('mini-rack-backplate',
'mini-rack-backplate',(#1874));
#1871=APPLICATION_PROTOCOL_DEFINITION('international standard',
'automotive_design',2009,#1872);
#1872=APPLICATION_CONTEXT(
'Core Data for Automotive Mechanical Design Process');
#1873=PRODUCT_CONTEXT('part definition',#1872,'mechanical');
#1874=PRODUCT('2026-05-28-12-53-01-030','mini-rack-backplate',$,(#1873));
#1875=PRESENTATION_STYLE_ASSIGNMENT((#1876));
#1876=SURFACE_STYLE_USAGE(.BOTH.,#1877);
#1877=SURFACE_SIDE_STYLE('',(#1878));
#1878=SURFACE_STYLE_FILL_AREA(#1879);
#1879=FILL_AREA_STYLE('Steel - Satin',(#1880));
#1880=FILL_AREA_STYLE_COLOUR('Steel - Satin',#1881);
#1881=COLOUR_RGB('Steel - Satin',0.627450980392157,0.627450980392157,0.627450980392157);
ENDSEC;
END-ISO-10303-21;
